<?xml version="1.0" standalone="yes"?>

<svg version="1.1" viewBox="0.0 0.0 200.0 231.0" fill="none" stroke="none" stroke-linecap="square" stroke-miterlimit="10" xmlns="http://www.w3.org/2000/svg" xmlns:xlink="http://www.w3.org/1999/xlink"><clipPath id="p.0"><path d="m0 0l200.0 0l0 231.0l-200.0 0l0 -231.0z" clip-rule="nonzero"></path></clipPath><g clip-path="url(#p.0)"><path fill="#000000" fill-opacity="0.0" d="m0 0l200.0 0l0 231.0l-200.0 0z" fill-rule="nonzero"></path><path fill="#000000" d="m5.290026 122.25984l0 0c0 -52.306152 42.40251 -94.708664 94.708664 -94.708664l0 0c25.118301 0 49.207825 9.978203 66.96913 27.739525c17.761322 17.761318 27.739532 41.850834 27.739532 66.96913l0 0c0 52.306152 -42.40251 94.708664 -94.708664 94.708664l0 0c-52.30615 0 -94.708664 -42.40251 -94.708664 -94.708664z" fill-rule="nonzero"></path><path stroke="#000000" stroke-width="1.0" stroke-linejoin="round" stroke-linecap="butt" d="m5.290026 122.25984l0 0c0 -52.306152 42.40251 -94.708664 94.708664 -94.708664l0 0c25.118301 0 49.207825 9.978203 66.96913 27.739525c17.761322 17.761318 27.739532 41.850834 27.739532 66.96913l0 0c0 52.306152 -42.40251 94.708664 -94.708664 94.708664l0 0c-52.30615 0 -94.708664 -42.40251 -94.708664 -94.708664z" fill-rule="nonzero"></path><path fill="#5cb85c" d="m24.177166 117.65879l0 0c0 -18.797775 7.4751415 -36.823982 20.777798 -50.105392c13.302654 -13.281403 31.340797 -20.727718 50.138542 -20.697666l-0.05806732 36.324802l0 0c-9.153755 -0.014633179 -17.937607 3.6114273 -24.415466 10.078934c-6.477867 6.467514 -10.117958 15.24556 -10.117958 24.399323z" fill-rule="nonzero"></path><path stroke="#000000" stroke-width="1.0" stroke-linejoin="round" stroke-linecap="butt" d="m24.177166 117.65879l0 0c0 -18.797775 7.4751415 -36.823982 20.777798 -50.105392c13.302654 -13.281403 31.340797 -20.727718 50.138542 -20.697666l-0.05806732 36.324802l0 0c-9.153755 -0.014633179 -17.937607 3.6114273 -24.415466 10.078934c-6.477867 6.467514 -10.117958 15.24556 -10.117958 24.399323z" fill-rule="nonzero"></path><path fill="#d9534f" d="m104.72835 46.855644l0 0c18.797775 0 36.82399 7.4751434 50.105392 20.777794c13.281403 13.302658 20.727722 31.340797 20.697662 50.13855l-36.3248 -0.05807495l0 0c0.014633179 -9.153755 -3.6114197 -17.937607 -10.078934 -24.415466c-6.467514 -6.4778595 -15.24556 -10.117958 -24.399323 -10.117958z" fill-rule="nonzero"></path><path stroke="#000000" stroke-width="1.0" stroke-linejoin="round" stroke-linecap="butt" d="m104.72835 46.855644l0 0c18.797775 0 36.82399 7.4751434 50.105392 20.777794c13.281403 13.302658 20.727722 31.340797 20.697662 50.13855l-36.3248 -0.05807495l0 0c0.014633179 -9.153755 -3.6114197 -17.937607 -10.078934 -24.415466c-6.467514 -6.4778595 -15.24556 -10.117958 -24.399323 -10.117958z" fill-rule="nonzero"></path><path fill="#5bc0de" d="m175.5315 127.908134l0 0c0 18.797783 -7.4751434 36.823982 -20.777802 50.1054c-13.302658 13.281403 -31.34079 20.727707 -50.138542 20.697662l0.05807495 -36.3248l0 0c9.153755 0.014633179 17.937607 -3.6114197 24.415459 -10.078934c6.4778748 -6.467514 10.117966 -15.24556 10.117966 -24.39933z" fill-rule="nonzero"></path><path stroke="#000000" stroke-width="1.0" stroke-linejoin="round" stroke-linecap="butt" d="m175.5315 127.908134l0 0c0 18.797783 -7.4751434 36.823982 -20.777802 50.1054c-13.302658 13.281403 -31.34079 20.727707 -50.138542 20.697662l0.05807495 -36.3248l0 0c9.153755 0.014633179 17.937607 -3.6114197 24.415459 -10.078934c6.4778748 -6.467514 10.117966 -15.24556 10.117966 -24.39933z" fill-rule="nonzero"></path><path fill="#f0ad4e" d="m93.72835 198.71129l0 0c-18.797775 0 -36.823986 -7.4751434 -50.105392 -20.777802c-13.281406 -13.302658 -20.72772 -31.34079 -20.697668 -50.138542l36.3248 0.05806732l0 0c-0.014633179 9.153763 3.6114235 17.937607 10.078938 24.415466c6.467514 6.4778595 15.24556 10.117966 24.399323 10.117966z" fill-rule="nonzero"></path><path stroke="#000000" stroke-width="1.0" stroke-linejoin="round" stroke-linecap="butt" d="m93.72835 198.71129l0 0c-18.797775 0 -36.823986 -7.4751434 -50.105392 -20.777802c-13.281406 -13.302658 -20.72772 -31.34079 -20.697668 -50.138542l36.3248 0.05806732l0 0c-0.014633179 9.153763 3.6114235 17.937607 10.078938 24.415466c6.467514 6.4778595 15.24556 10.117966 24.399323 10.117966z" fill-rule="nonzero"></path><path fill="#000000" d="m148.46005 19.547264l17.32283 9.984251l-9.984253 17.322836l-17.32283 -9.984253z" fill-rule="nonzero"></path><path stroke="#000000" stroke-width="1.0" stroke-linejoin="round" stroke-linecap="butt" d="m148.46005 19.547264l17.32283 9.984251l-9.984253 17.322836l-17.32283 -9.984253z" fill-rule="nonzero"></path><path fill="#000000" fill-opacity="0.0" d="m156.66055 24.744545l0 0c1.9814758 -4.0856495 4.801712 -8.060438 7.8583527 -11.07539l1.1291046 10.5749z" fill-rule="nonzero"></path><path fill="#000000" fill-opacity="0.0" d="m156.66055 24.744545l0 0c1.9814758 -4.0856495 4.801712 -8.060438 7.8583527 -11.07539" fill-rule="nonzero"></path><path stroke="#000000" stroke-width="4.0" stroke-linejoin="round" stroke-linecap="butt" d="m156.66055 24.744545l0 0c1.9814758 -4.0856495 4.801712 -8.060438 7.8583527 -11.07539" fill-rule="nonzero"></path></g></svg>

