<?xml version="1.0" encoding="iso-8859-1"?>
<!-- Generator: Adobe Illustrator 16.0.0, SVG Export Plug-In . SVG Version: 6.00 Build 0)  -->
<!DOCTYPE svg PUBLIC "-//W3C//DTD SVG 1.1//EN" "http://www.w3.org/Graphics/SVG/1.1/DTD/svg11.dtd">
<svg version="1.1" id="Capa_1" xmlns="http://www.w3.org/2000/svg" xmlns:xlink="http://www.w3.org/1999/xlink" x="0px" y="0px"
	 width="611.995px" height="611.995px" viewBox="0 0 611.995 611.995" style="enable-background:new 0 0 611.995 611.995;"
	 xml:space="preserve">
<g>
	<g>
		<path d="M555.89,48.245c-26.574-13.015-52.976-13.707-54.085-13.728l-47.092-0.972l38.576,27.032
			c12.073,8.459,23.606,21.683,31.644,36.276c8.409,15.259,12.399,30.86,11.249,43.925c-1.436,16.237-10.373,27.969-27.338,35.853
			c-7.492,3.481-14.679,5.176-21.983,5.176c-23.164,0-44.734-17.662-65.593-34.738c-17.83-14.598-34.672-28.386-53.591-32.55
			c-6.139-1.354-12.175-2.036-17.942-2.036c-20.604,0-34.723,8.378-43.726,16.842c-9.009-8.464-23.124-16.842-43.727-16.842
			c-5.762,0-11.798,0.687-17.942,2.036c-18.919,4.164-35.761,17.952-53.596,32.55c-20.863,17.077-42.434,34.738-65.593,34.738
			h-0.005c-7.294,0-14.481-1.695-21.973-5.176c-16.964-7.889-25.907-19.616-27.337-35.853c-1.15-13.065,2.84-28.666,11.249-43.925
			c8.037-14.593,19.57-27.816,31.644-36.276l39.065-27.383l-47.697,1.323c-1.104,0.031-27.317,0.901-53.79,14.104
			C30.875,61.305,0.464,87.727,0.005,141.593c-0.3,35.334,12.43,67.792,35.838,91.404c21.118,21.296,49.158,33.842,79.708,35.848
			c-4.225,5.808-8.139,12.302-11.712,19.489c-12.221,24.604-16.237,48.821-16.405,49.841l-2.779,17.137l17.351-0.523
			c21.652-0.652,41.029-6.648,57.027-14.115c3.049,13.936,7.808,27.176,14.267,39.502c8.414,16.049,17.112,33.416,23.77,51.662
			c2.81,7.701,5.37,15.168,5.808,21.902c-0.204,0.764-1.614,2.824-2.555,4.199c-1.888,2.758-4.235,6.193-5.925,10.582
			c-5.649,14.699-3.792,32.188,5.095,47.977c4.28,7.604,8.8,13.84,14.709,17.992c-7.131,16.35-3.364,27.186,1.461,33.613
			c5.329,7.102,13.732,10.699,24.966,10.699c8.805,0,18.959-2.117,29.714-4.361c11.946-2.494,24.304-5.07,35.649-5.07
			s23.704,2.576,35.649,5.07c10.75,2.244,20.904,4.361,29.71,4.361h0.005c11.233,0,19.637-3.598,24.966-10.699
			c4.825-6.428,8.592-17.264,1.461-33.613c5.909-4.152,10.429-10.389,14.709-17.992c7.94-14.104,10.328-28.711,6.912-42.246
			c-1.236-4.887-3.201-9.568-5.843-13.916c-1.146-1.877-2.306-3.439-3.237-4.697c-0.402-0.545-0.916-1.232-1.236-1.715
			c0.102-1.803,0.493-3.854,0.875-5.66c2.367-11.234,7.192-22.762,11.534-32.688c4.683-10.709,10.144-21.957,17.193-35.404
			c6.52-12.439,11.305-25.807,14.348-39.875c16.15,7.635,35.808,13.82,57.816,14.486l17.351,0.523l-2.778-17.137
			c-0.163-1.018-4.185-25.236-16.405-49.84c-3.436-6.922-7.191-13.198-11.238-18.837c30.886-1.878,58.977-14.862,79.769-37.049
			c22.212-23.704,34.443-56.157,34.443-91.394C612,87.06,581.486,60.781,555.89,48.245z M413.307,366.875
			c-7.37,14.059-13.111,25.887-18.068,37.227c-4.912,11.229-10.394,24.371-13.32,38.266c-0.708,3.369-1.44,7.4-1.512,11.783
			c-0.143,9.096,4.107,14.812,6.922,18.594c0.697,0.941,1.304,1.75,1.751,2.488c1.155,1.898,2.011,3.93,2.545,6.041
			c2.001,7.926-1.125,15.887-4.097,21.174c-2.479,4.404-4.185,6.643-5.304,7.773c-0.301,0.305-0.565,0.535-0.784,0.697
			c-0.315,0.238-0.713,0.535-2.805,0.535l0,0c-3.059,0-7.568-0.703-13.249-1.619c-0.274-0.047-0.555-0.086-0.834-0.133
			c-4.78-0.768-10.511-1.689-17.342-2.529c-10.78-1.328-24.309-2.453-41.207-2.453c-16.898,0-30.427,1.125-41.208,2.453
			c-6.831,0.84-12.562,1.762-17.341,2.535c-0.285,0.045-0.56,0.092-0.84,0.137c-5.681,0.912-10.19,1.619-13.244,1.619
			c-2.092,0-2.489-0.295-2.81-0.535c-0.219-0.168-0.483-0.396-0.784-0.697c-1.12-1.135-2.825-3.369-5.304-7.771
			c-4.617-8.201-5.854-17.037-3.318-23.639c0.483-1.256,1.624-2.926,2.83-4.688c3.252-4.754,8.164-11.936,7.498-22.201
			c-0.682-10.525-3.929-20.15-7.487-29.898c-7.253-19.875-16.863-39.029-25.307-55.143c-3.695-7.051-6.708-14.4-9.05-22.039
			c3.858,1.252,7.843,1.908,11.829,1.908c9.589,0,18.084-3.756,23.928-10.572c6.083-7.1,8.459-16.822,6.53-26.676
			c-1.715-8.759-6.658-17-13.911-23.215c-7.686-6.586-17.102-10.215-26.508-10.215c-2.042,0-4.031,0.178-5.96,0.514
			c0.611-4.158,1.359-8.368,2.255-12.628c0.799-3.802,1.68-7.467,2.611-10.963c3.37-1.562,6.688-3.161,9.976-4.744
			c9.203-4.428,17.891-8.612,26.839-11.722c12.455-4.332,25.302-6.525,38.185-6.525c12.037,0,24.248,1.919,36.291,5.696l4.291,1.349
			l4.291-1.349c12.043-3.782,24.253-5.696,36.291-5.696c12.887,0,25.734,2.194,38.184,6.525c9.101,3.166,17.922,7.385,27.267,11.859
			c3.136,1.501,6.301,3.013,9.513,4.5c1.924,7.238,3.645,15.198,4.882,23.663c-1.868-0.311-3.787-0.479-5.762-0.479
			c-9.406,0-18.822,3.629-26.509,10.215c-7.253,6.215-12.195,14.46-13.91,23.215c-1.935,9.854,0.448,19.576,6.53,26.676
			c5.843,6.816,14.338,10.572,23.928,10.572l0,0c3.909,0,7.812-0.637,11.6-1.838C420.051,352.282,417.104,359.637,413.307,366.875z
			 M371.361,550.151c-5.848,0-14.598-1.828-23.861-3.756c-12.75-2.658-27.2-5.676-41.502-5.676c-14.303,0-28.753,3.014-41.503,5.676
			c-9.264,1.934-18.013,3.756-23.861,3.756c-0.611,0-1.125-0.02-1.552-0.051c0.336-1.715,1.369-4.922,4.484-9.941
			c0.198-0.32,0.402-0.635,0.601-0.951c2.433-0.342,5.019-0.758,7.838-1.211c12.104-1.949,28.681-4.621,53.993-4.621
			c25.307,0,41.884,2.672,53.992,4.621c2.825,0.453,5.416,0.869,7.859,1.217c2.677,4.203,4.662,8.311,5.136,10.881
			C372.548,550.131,372.013,550.151,371.361,550.151L371.361,550.151z M66.266,75.74c-1.502,2.382-2.932,4.815-4.291,7.283
			c-7.869,14.288-16.807,36.337-14.694,60.27c1.115,12.653,5.222,24.07,12.2,33.939c7.477,10.566,18.11,19.107,31.603,25.383
			c11.203,5.207,22.655,7.849,34.056,7.849h0.01c33.39-0.005,60.142-21.902,83.744-41.223
			c15.107-12.363,29.374-24.044,41.604-26.737c4.123-0.906,8.083-1.369,11.778-1.369c9.167,0,17.031,2.825,23.373,8.393
			c2.865,2.514,4.84,5.1,6.026,6.876v20.125v14.491v12.725c-8.745-1.593-17.524-2.402-26.254-2.402
			c-16.099,0-32.112,2.728-47.6,8.118c-10.496,3.649-20.339,8.388-29.857,12.969c-1.048,0.504-2.092,1.008-3.13,1.507
			c-6.138,2.942-12.114,5.747-18.104,8.124c-3.303,1.308-6.612,2.494-9.956,3.502c-10.836,3.268-21.78,4.922-32.514,4.922
			c-26.208,0-50.379-9.824-68.067-27.664c-17.987-18.14-27.765-43.351-27.531-70.983C28.921,111.395,41.569,89.167,66.266,75.74z
			 M420.672,304.728c1.161,0,1.924,0.28,2.163,0.56c0.738,0.865,0.423,5.467-4.265,9.488c-0.876,0.748-1.817,1.385-2.779,1.898
			c-1.71,0.906-3.486,1.42-5.085,1.42c-1.165,0-1.924-0.281-2.163-0.561c-0.26-0.305-0.423-1.221-0.168-2.514
			c0.474-2.424,2.092-4.963,4.434-6.969c2.352-2.016,5.191-3.237,7.64-3.303C420.52,304.738,420.596,304.728,420.672,304.728z
			 M193.614,314.77c-2.341-2.006-3.96-4.545-4.433-6.969c-0.254-1.297-0.092-2.213,0.168-2.514c0.239-0.28,1.002-0.56,2.163-0.56
			c0.311,0,0.626,0.02,0.947,0.056c2.27,0.265,4.79,1.44,6.917,3.264c4.688,4.016,5.003,8.621,4.265,9.486
			c-0.239,0.279-0.998,0.561-2.163,0.561c-1.466,0-3.079-0.438-4.652-1.207C195.711,316.338,194.617,315.631,193.614,314.77z
			 M489.966,241.084h-0.006c-11.243,0-22.889-1.848-34.616-5.492c-3.395-1.054-6.749-2.28-10.098-3.624
			c-5.991-2.407-11.967-5.202-18.115-8.139c-0.906-0.433-1.812-0.865-2.728-1.303c-9.641-4.612-19.611-9.381-30.224-13.071
			c-15.489-5.385-31.502-8.119-47.601-8.119c-8.729,0-17.51,0.81-26.254,2.402v-12.725v-14.491v-20.125
			c1.181-1.776,3.161-4.357,6.026-6.876c6.337-5.568,14.206-8.388,23.373-8.388c3.695,0,7.66,0.463,11.783,1.369
			c12.23,2.692,26.492,14.369,41.6,26.737c23.602,19.321,50.354,41.223,83.748,41.223c11.401,0,22.863-2.642,34.062-7.849
			c13.493-6.276,24.126-14.812,31.603-25.383c6.979-9.869,11.086-21.286,12.201-33.939c2.112-23.933-6.826-45.987-14.695-60.27
			c-1.506-2.738-3.1-5.42-4.779-8.052c10.832,5.64,19.454,12.974,25.653,21.825c8.251,11.783,12.435,26.671,12.435,44.256
			c0,27.928-9.478,53.428-26.696,71.797C539.587,231.057,515.908,241.084,489.966,241.084z M120.523,323.704
			c5.69-18.213,17.076-44.496,37.385-55.755c-2.407,14.547-3.324,28.768-2.738,42.501
			C145.428,315.768,133.655,320.817,120.523,323.704z M456.846,309.975c0.55-13.752-0.392-27.983-2.84-42.546
			c20.909,10.958,32.56,37.782,38.342,56.274C478.834,320.731,466.751,315.467,456.846,309.975z"/>
		<path d="M278.151,358.686l-14.083-2.627l-14.079-2.662c-0.387,2.041-9.162,50.369,15.987,83.906l22.924-17.193
			C271.402,396.768,278.085,359.063,278.151,358.686z"/>
		<path d="M346.849,437.303c25.154-33.537,16.374-81.865,15.992-83.906l-28.157,5.324c0.071,0.377,6.617,38.221-10.755,61.383
			L346.849,437.303z"/>
		<path d="M273.291,477.993c-2.988-6.281-11.05-9.834-19.667-8.404c-0.397,0.066-0.794,0.137-1.196,0.225
			c-10.23,2.238-17.062,10.738-15.259,18.984c0.397,1.822,1.191,3.482,2.285,4.938c2.759,3.66,7.472,6.012,12.847,6.418
			c2.143,0.164,4.388,0.021,6.663-0.479c10.231-2.238,17.062-10.738,15.26-18.984C274.013,479.743,273.698,478.846,273.291,477.993z
			"/>
		<path d="M358.942,469.817c-0.163-0.035-0.321-0.061-0.483-0.096c-8.882-1.752-17.311,1.822-20.385,8.271
			c-0.407,0.85-0.724,1.75-0.932,2.697c-1.802,8.246,5.028,16.746,15.259,18.984c2.484,0.545,4.942,0.668,7.264,0.424
			c5.354-0.561,9.986-3.061,12.593-6.857c0.916-1.334,1.582-2.824,1.938-4.443C376.004,480.557,369.173,472.057,358.942,469.817z"/>
	</g>
</g>
<g>
</g>
<g>
</g>
<g>
</g>
<g>
</g>
<g>
</g>
<g>
</g>
<g>
</g>
<g>
</g>
<g>
</g>
<g>
</g>
<g>
</g>
<g>
</g>
<g>
</g>
<g>
</g>
<g>
</g>
</svg>
