<?xml version="1.0" encoding="iso-8859-1"?>
<!-- Generator: Adobe Illustrator 16.0.0, SVG Export Plug-In . SVG Version: 6.00 Build 0)  -->
<!DOCTYPE svg PUBLIC "-//W3C//DTD SVG 1.1//EN" "http://www.w3.org/Graphics/SVG/1.1/DTD/svg11.dtd">
<svg version="1.1" id="Capa_1" xmlns="http://www.w3.org/2000/svg" xmlns:xlink="http://www.w3.org/1999/xlink" x="0px" y="0px"
	 width="662.807px" height="662.807px" viewBox="0 0 662.807 662.807" style="enable-background:new 0 0 662.807 662.807;"
	 xml:space="preserve">
<g>
	<g>
		<path d="M510.278,270.005c7.539-28.132,12.472-53.385,15.063-77.197c0.533-4.889,0.95-9.785,1.253-14.639
			c31.387-3.744,58.965-24.179,80.48-59.908c17.821-29.587,25.316-59.498,25.626-60.758l4.702-19.081l-19.621-1.001
			c-45.558-2.326-84.959,15.358-110.636,31.192c-5.494-9.354-12.271-17.454-20.039-23.906
			c-13.609-11.297-30.026-17.267-47.474-17.267c-12.709,0-25.201,3.082-36.47,8.958c0.137-7.583-2.132-15.128-6.64-21.436
			C389.835,5.595,378.955,0,367.441,0h-70.903c-11.521,0-22.394,5.595-29.09,14.97c-4.471,6.257-6.732,13.731-6.639,21.256
			c-11.183-5.76-23.546-8.777-36.125-8.777c-17.447,0-33.864,5.969-47.473,17.267c-7.755,6.438-14.523,14.531-20.01,23.863
			C133.929,54.4,92.8,34.987,45.025,37.421l-19.622,0.994l4.702,19.081c0.316,1.275,7.906,31.574,25.979,61.349
			c21.839,35.981,49.813,56.265,81.654,59.498c0.303,4.803,0.713,9.634,1.246,14.466c2.592,23.819,7.524,49.072,15.063,77.197
			c2.095,7.827,5.587,14.927,8.957,21.789c1.52,3.089,2.981,6.063,4.191,8.878c-13.249,46.631-27.304,105.387-27.304,144.889
			c0,42.396,10.066,81.949,28.348,111.363c3.788,6.099,7.906,11.693,12.298,16.77c-0.396,6.567-0.504,17.051,1.44,28.399
			c4.615,26.879,18.217,45.78,39.351,54.666c9.67,4.068,19.189,6.048,29.097,6.048c15.625,0,29.104-4.953,42.145-9.749
			c12.702-4.673,24.698-9.08,38.681-9.08h0.749c13.983,0,25.986,4.414,38.688,9.08c13.04,4.796,26.52,9.749,42.145,9.749h0.007
			c9.901,0,19.42-1.979,29.098-6.048c21.126-8.886,34.735-27.787,39.351-54.666c1.8-10.47,1.844-20.205,1.526-26.808
			c4.933-5.494,9.52-11.622,13.71-18.369c18.282-29.414,28.349-68.966,28.349-111.362c0-39.683-14.178-98.799-27.484-145.522
			c1.159-2.628,2.513-5.386,3.917-8.245C504.69,284.924,508.176,277.832,510.278,270.005z M293.838,33.821
			c0.454-0.634,1.289-1.39,2.7-1.39h70.903c1.412,0,2.247,0.756,2.7,1.39c0.454,0.633,0.9,1.67,0.439,3.002l-4.954,14.458
			c-10.872,3.175-22.847,5.696-33.468,5.696c-10.75,0-22.883-2.585-33.85-5.811l-4.911-14.343
			C292.938,35.492,293.385,34.455,293.838,33.821z M429.373,626.869c-5.616,2.362-11.023,3.507-16.524,3.507l0,0
			c-9.851,0-19.629-3.593-30.955-7.755c-14.12-5.191-30.12-11.074-49.879-11.074h-0.748c-19.758,0-35.758,5.883-49.871,11.074
			c-11.327,4.162-21.105,7.755-30.955,7.755c-5.508,0-10.909-1.145-16.525-3.507c-11.47-4.824-16.871-15.834-19.312-26.786
			c12.219,5.775,25.454,8.777,39.351,8.777c22.084,0,43.534-4.334,60.391-12.204c7.035-3.284,12.601-6.862,16.986-10.527
			c4.629,3.716,10.52,7.33,17.979,10.649c17.26,7.676,39.689,12.082,61.536,12.082h0.007c13.257,0,25.922-2.743,37.666-8.014
			C445.985,611.547,440.57,622.16,429.373,626.869z M494.912,145.141l-0.18,17.108c-0.094,8.821-0.641,17.922-1.635,27.045
			c-2.037,18.743-5.674,38.559-11.045,60.268c-4.112-12.723-6.949-20.91-7.417-22.25c-2.945-8.46-12.19-12.925-20.651-9.98
			c-6.696,2.333-10.887,8.605-10.887,15.315c0,1.771,0.288,3.572,0.9,5.336c0.482,1.39,48.438,139.898,48.438,207.583
			c0,36.428-8.331,69.903-23.459,94.248c-1.419,2.282-2.866,4.414-4.328,6.43c-7.646,10.542-15.834,17.591-23.877,22.192
			c-10.822,6.199-21.371,7.985-29.939,7.985l0,0c-17.469,0-35.095-3.385-48.352-9.282c-5.191-2.311-8.69-4.55-11.023-6.444
			c-1.793-1.454-2.888-2.707-3.521-3.629v-29.724v-46.933c0-0.943-0.028-1.562-0.188-2.478c-0.252-1.979-2.858-26.807,20.615-44.34
			c1.498-1.116,2.952-2.218,4.371-3.298l-0.281,0.641c12.89,5.659,25.562,4.831,35.708-2.318
			c14.206-10.017,22.313-31.668,24.784-66.188c1.627-22.71,0.216-43.001,0.15-43.851c-0.576-8.115-7.078-14.545-15.192-15.035
			c-8.115-0.497-15.345,5.105-16.9,13.09c-11.132,57.187-16.913,64.725-52.052,90.971c-7.316,5.466-13.076,11.392-17.605,17.439
			c-4.529-6.048-10.29-11.974-17.605-17.439c-35.138-26.246-40.92-33.784-52.052-90.971c-1.555-7.985-8.777-13.58-16.899-13.09
			c-8.115,0.49-14.617,6.919-15.193,15.035c-0.058,0.85-1.469,21.141,0.151,43.851c2.47,34.52,10.578,56.171,24.784,66.188
			c10.138,7.149,22.818,7.971,35.707,2.318l-0.281-0.641c1.418,1.08,2.873,2.182,4.371,3.298
			c23.467,17.525,20.867,42.346,20.615,44.34c-0.158,0.915-0.187,1.534-0.187,2.478v46.717v28.377c0,1.21-1.174,2.981-3.449,4.997
			c-7.524,6.653-27.225,15.921-57.366,15.921c-8.799,0-19.701-1.901-30.84-8.519c-7.957-4.73-16.036-11.866-23.567-22.466
			c-1.26-1.778-2.513-3.65-3.744-5.631c-15.128-24.345-23.459-57.819-23.459-94.247c0-67.685,47.956-206.187,48.438-207.583
			c0.612-1.764,0.9-3.564,0.9-5.335c0-6.711-4.191-12.982-10.88-15.315c-8.454-2.945-17.699,1.519-20.651,9.98
			c-0.475,1.361-3.42,9.872-7.668,23.049c-5.479-22.02-9.173-42.094-11.24-61.068c-1.001-9.159-1.548-18.296-1.635-27.153
			l-0.18-17.433l-17.382,1.447c-26.001,2.16-48.833-12.486-67.857-43.542c-6.869-11.211-12.039-22.71-15.69-32.107
			c42.022,4.673,75.31,27.297,85.628,35.045l17.49,13.141l7.488-20.557c0.252-0.691,0.504-1.383,0.771-2.074
			c12.572-32.64,35.535-36.168,44.823-36.168c8.684,0,17.209,2.456,24.655,7.093l0.749,0.468l0.799,0.382
			c1.836,0.878,45.292,21.587,81.28,21.587c35.987,0,79.442-20.701,81.279-21.587l0.799-0.382l0.749-0.468
			c7.445-4.645,15.971-7.093,24.654-7.093c9.289,0,32.251,3.528,44.823,36.168c0.137,0.36,0.425,1.037,0.72,1.728
			c0.094,0.216,0.194,0.439,0.267,0.619l7.431,19.974l17.317-12.738c16.439-12.089,47.135-30.811,84.131-35.095
			c-3.521,9.059-8.475,20.083-15.042,30.984c-18.865,31.322-41.511,46.364-67.303,44.708L494.912,145.141z"/>
		<path d="M268.608,125.44c-1.087,0-2.211,0.007-3.377,0.029c-9.267,0.151-21.177,0.813-31.149,4.623
			c-13.134,5.026-21.227,14.941-22.79,27.924c-1.461,12.197,3.075,24.597,12.457,34.037c8.511,8.562,20.298,14.127,33.202,15.675
			c2.419,0.288,4.882,0.439,7.323,0.439l0,0c11.773,0,23.114-3.384,31.934-9.541c10.513-7.331,16.706-18.232,16.993-29.918
			c0.288-11.657,0.583-23.711-8.403-32.92C295.919,126.693,282.159,125.44,268.608,125.44z M280.776,167.916
			c-0.079,3.146-7.042,7.82-16.503,7.82c-1.152,0-2.312-0.072-3.449-0.209c-10.7-1.282-17.972-8.259-17.324-13.638
			c0.021-0.208,0.05-0.346,0.072-0.425c0.771-0.713,4.738-3.276,22.185-3.564c0.986-0.015,1.93-0.022,2.852-0.022
			c6.646,0,10.275,0.447,12.154,0.828C280.942,161.241,280.841,165.252,280.776,167.916z"/>
		<path d="M429.187,130.092c-9.973-3.816-21.89-4.479-31.157-4.623c-1.166-0.022-2.289-0.029-3.377-0.029
			c-13.551,0-27.312,1.253-36.189,10.354c-8.986,9.209-8.691,21.263-8.403,32.921c0.288,11.687,6.48,22.588,16.993,29.918
			c8.821,6.149,20.162,9.541,31.935,9.541c2.441,0,4.903-0.151,7.323-0.439c12.903-1.548,24.69-7.114,33.201-15.675
			c9.382-9.433,13.919-21.839,12.457-34.037C450.413,145.033,442.32,135.118,429.187,130.092z M416.514,169.184
			c-3.342,3.355-8.468,5.667-14.07,6.343c-1.138,0.137-2.304,0.209-3.449,0.209c-9.461,0-16.424-4.673-16.503-7.82
			c-0.065-2.664-0.166-6.675,0.014-9.209c1.887-0.381,5.509-0.828,12.155-0.828c0.921,0,1.864,0.007,2.851,0.022
			c17.447,0.281,21.422,2.851,22.186,3.564c0.021,0.079,0.05,0.223,0.079,0.425C420.143,165.014,417.889,167.801,416.514,169.184z"
			/>
	</g>
</g>
<g>
</g>
<g>
</g>
<g>
</g>
<g>
</g>
<g>
</g>
<g>
</g>
<g>
</g>
<g>
</g>
<g>
</g>
<g>
</g>
<g>
</g>
<g>
</g>
<g>
</g>
<g>
</g>
<g>
</g>
</svg>
