<?xml version="1.0" encoding="iso-8859-1"?>
<!-- Generator: Adobe Illustrator 16.0.0, SVG Export Plug-In . SVG Version: 6.00 Build 0)  -->
<!DOCTYPE svg PUBLIC "-//W3C//DTD SVG 1.1//EN" "http://www.w3.org/Graphics/SVG/1.1/DTD/svg11.dtd">
<svg version="1.1" id="Capa_1" xmlns="http://www.w3.org/2000/svg" xmlns:xlink="http://www.w3.org/1999/xlink" x="0px" y="0px"
	 width="791.99px" height="791.99px" viewBox="0 0 791.99 791.99" style="enable-background:new 0 0 791.99 791.99;"
	 xml:space="preserve">
<g>
	<g>
		<path d="M454.688,145.39c-11.941-2.896-34.934-7.442-58.475-7.442c-23.542,0-46.998,4.547-58.94,7.442L101.723,0v445.433
			c0,133.752,61.854,170.032,110.988,199.185c12.293,7.29,24.263,14.182,34.136,22.108c47.264,37.951,74.384,109.773,74.641,110.447
			l4.984,14.817h124.924l13.545-2.145l4.822-13.718c0.266-0.702,27.207-70.919,74.471-108.871
			c9.871-7.926,22.469-15.083,34.762-22.374c49.143-29.151,111.273-65.698,111.273-199.45V0L454.688,145.39z M438.369,744.537
			h-85.291c-4.082-9.493-10.461-20.296-19.09-35.009l61.74-37.003l61.74,36.519C448.83,723.758,442.441,735.044,438.369,744.537z
			 M652.297,445.433c0,50.501-11.031,88.111-30.33,114.984c-16.783,23.362-39.746,36.5-63.184,50.406
			c-12.928,7.67-26.701,15.597-38.738,25.26c-10.291,8.269-19.887,17.638-28.393,27.435c-1.338-19.489-3.066-45.527-4.348-73.18
			c-2.07-44.549-2.592-76.795-2.184-100.138c9.406,4.139,19.982,6.341,30.852,6.341c3.275,0,6.588-0.199,9.863-0.598
			c17.551-2.107,33.564-9.663,45.107-21.273c12.578-12.653,18.672-29.237,16.717-45.508c-1.793-14.941-10.043-28.345-23.209-37.742
			c-11.838-8.439-27.035-13.09-42.803-13.09c-3.275,0-6.598,0.199-9.881,0.598c-17.553,2.107-33.576,9.663-45.119,21.272
			c-9.682,9.74-15.502,21.805-16.783,34.269c-8.477,47.302-2.107,165.609,2.07,227.473L406.361,633.9l-0.162-0.096l-0.189-0.113
			c-0.02-0.01-0.039-0.02-0.057-0.028c-0.248-0.152-0.494-0.295-0.74-0.428c-0.066-0.038-0.125-0.066-0.191-0.104
			c-0.209-0.113-0.418-0.218-0.625-0.322c-0.105-0.058-0.219-0.104-0.324-0.162c-0.16-0.075-0.322-0.151-0.484-0.218
			c-0.16-0.066-0.312-0.133-0.475-0.199c-0.113-0.048-0.217-0.086-0.332-0.133c-0.209-0.076-0.418-0.162-0.625-0.229
			c-0.066-0.019-0.133-0.047-0.201-0.066c-0.246-0.085-0.492-0.161-0.748-0.237c-0.029-0.009-0.059-0.36-0.086-0.37
			c-0.285-0.076-0.561-0.569-0.846-0.569c-0.01,0-0.02,0-0.027,0c-0.295,0-0.59,0-0.893,0c-0.01,0-0.02,0-0.029,0
			c-0.293,0-0.588,0.143-0.883,0.095c-0.027,0-0.066,0.114-0.094,0.114c-0.275-0.038-0.541-0.01-0.817-0.038
			c-0.076-0.01-0.152,0.019-0.229,0.01c-0.228-0.02-0.446-0.104-0.673-0.114c-0.133-0.01-0.275-0.076-0.418-0.076
			c-0.161,0-0.323,0-0.484,0c-0.209,0-0.408,0-0.617,0c-0.095,0-0.19,0-0.285,0c-0.266,0-0.532,0-0.797,0c-0.038,0-0.066,0-0.104,0
			c-1.234,0-2.458,0-3.664,0h-0.019c-0.275,0-0.541,0.627-0.816,0.722c-0.047,0.019-0.085,0.266-0.133,0.275
			c-0.228,0.076-0.456,0.275-0.674,0.36c-0.095,0.038-0.189,0.133-0.285,0.171c-0.171,0.066-0.351,0.171-0.522,0.247
			c-0.152,0.066-0.294,0.143-0.446,0.219c-0.124,0.057-0.237,0.123-0.361,0.18c-0.199,0.095-0.398,0.199-0.598,0.313
			c-0.076,0.038-0.143,0.076-0.219,0.123c-0.237,0.133-0.484,0.275-0.721,0.418c-0.019,0.01-0.047,0.028-0.066,0.038l-0.228,0.143
			l-0.114,0.066l-46.191,28.411c4.177-61.759,10.594-180.445,2.098-227.843c-1.291-12.464-7.11-24.528-16.783-34.268
			c-11.543-11.61-27.566-19.166-45.119-21.273c-3.284-0.399-6.606-0.598-9.882-0.598c-15.767,0-30.965,4.651-42.802,13.09
			c-13.176,9.397-21.416,22.802-23.209,37.743c-1.956,16.271,4.139,32.863,16.717,45.508c11.543,11.609,27.566,19.165,45.118,21.272
			c3.275,0.398,6.598,0.599,9.882,0.599l0,0c10.879,0,21.492-2.222,30.918-6.37c0.939,54.279-3.427,129.375-6.389,172.719
			c-8.354-9.568-17.571-18.72-27.643-26.816c-12.037-9.664-25.402-17.6-38.332-25.26c-23.437-13.907-46.951-27.045-63.733-50.406
			c-19.261-26.846-30.016-64.455-30.016-114.966V70.587l190.679,117.32l9.16-2.544c0.275-0.076,27.738-8.116,55.845-8.116
			c27.89,0,55.417,8.041,55.675,8.116l10.203,2.544l191.041-117.32V445.433z M488.947,441.028
			c-1.377-11.486,13.385-21.377,27.5-23.076c1.727-0.209,3.475-0.313,5.191-0.313c14.049,0,25.906,7.119,26.998,16.213
			c0.701,5.838-3.189,10.728-5.572,13.119c-5.26,5.287-13.252,8.914-21.938,9.958c-1.729,0.209-3.475,0.313-5.193,0.313
			C501.904,457.251,490.039,450.122,488.947,441.028z M301.913,441.028c-1.092,9.094-12.948,16.223-26.997,16.214
			c-1.718,0-3.465-0.104-5.192-0.313c-14.116-1.699-28.886-11.591-27.51-23.077c1.091-9.094,12.948-16.213,26.997-16.213
			c1.708,0,3.465,0.104,5.192,0.313C288.519,419.651,303.29,429.542,301.913,441.028z"/>
		<path d="M177.664,254.564c0,0,40.439-36.262,80.868-62.49l-80.868-49.637V254.564z"/>
		<path d="M604.832,142.437l-80.867,49.627c40.43,26.238,80.867,62.5,80.867,62.5V142.437z"/>
	</g>
</g>
<g>
</g>
<g>
</g>
<g>
</g>
<g>
</g>
<g>
</g>
<g>
</g>
<g>
</g>
<g>
</g>
<g>
</g>
<g>
</g>
<g>
</g>
<g>
</g>
<g>
</g>
<g>
</g>
<g>
</g>
</svg>
