<?xml version="1.0" encoding="iso-8859-1"?>
<!-- Generator: Adobe Illustrator 16.0.0, SVG Export Plug-In . SVG Version: 6.00 Build 0)  -->
<!DOCTYPE svg PUBLIC "-//W3C//DTD SVG 1.1//EN" "http://www.w3.org/Graphics/SVG/1.1/DTD/svg11.dtd">
<svg version="1.1" id="Capa_1" xmlns="http://www.w3.org/2000/svg" xmlns:xlink="http://www.w3.org/1999/xlink" x="0px" y="0px"
	 width="657.756px" height="657.756px" viewBox="0 0 657.756 657.756" style="enable-background:new 0 0 657.756 657.756;"
	 xml:space="preserve">
<g>
	<g>
		<path d="M43.432,122.838c0.219,0.225,22.252,22.787,30.857,55.491c4.643,17.634,17.044,36.235,33.178,49.767
			c20.436,17.136,46.589,26.548,75.848,27.351c-0.201,2.516-2.096,5.11-5.426,9.461c-6.375,8.343-16.012,20.946-12.743,42.924
			c3.087,20.775,17.343,47.178,44.857,83.092c27.654,36.088,21.408,68.143,14.79,102.08c-5.183,26.578-10.543,54.068,1.258,82.258
			c12.846,30.699,43.563,56.037,96.678,79.748l6.162,2.746l6.161-2.746c53.115-23.711,83.838-49.057,96.684-79.748
			c11.795-28.195,6.436-55.68,1.258-82.258c-6.617-33.938-12.863-65.986,14.791-102.08c27.515-35.914,41.77-62.31,44.856-83.092
			c3.27-21.979-6.368-34.587-12.742-42.924c-3.33-4.351-5.226-6.946-5.427-9.461c29.265-0.802,55.419-10.215,75.854-27.351
			c16.133-13.526,28.535-32.133,33.172-49.767c8.604-32.704,30.638-55.266,30.826-55.46l20.551-20.551l-28.633-5.019
			c-15.118-2.649-29.806-3.992-43.642-3.992c-76.146,0-116.864,39.686-137.251,71.454l-15.447-27.393
			c18.114-46.905,26.677-115.752,27.053-118.803l1.659-13.581l-13.344-2.996C419.4,0.668,413.281,0,407.089,0
			c-16.765,0-28.931,4.843-30.261,5.396l-7.997,3.318l-1.185,8.574c-5.317,38.422-17.859,63.232-27.442,77.275
			c-4.119,6.034-8.057,10.652-11.308,14.025c-3.251-3.373-7.189-7.991-11.309-14.025c-9.588-14.043-22.13-38.854-27.441-77.275
			l-1.185-8.574l-7.997-3.318C279.633,4.843,267.468,0,250.703,0c-6.192,0-12.311,0.668-18.181,1.987l-13.35,2.996l1.659,13.581
			c0.371,3.051,8.938,71.898,27.053,118.803l-15.446,27.393c-20.387-31.768-61.106-71.454-137.251-71.454
			c-13.842,0-28.523,1.343-43.647,3.992l-28.657,4.989L43.432,122.838z M207.991,322.191c0.444-2.054,4.309-4.247,9.358-4.247
			c1.337,0,2.71,0.152,4.071,0.443c7.468,1.616,11.139,6.763,10.646,9.024c-0.444,2.054-4.309,4.247-9.358,4.247
			c-1.337,0-2.71-0.152-4.071-0.443c-3.798-0.82-7.128-2.697-9.146-5.147C208.939,325.394,207.675,323.656,207.991,322.191z
			 M434.731,331.664c-5.044,0-8.914-2.193-9.358-4.247c-0.315-1.464,0.948-3.196,1.501-3.877c2.018-2.449,5.348-4.326,9.146-5.147
			c1.361-0.297,2.734-0.443,4.071-0.443c5.044,0,8.908,2.194,9.358,4.248c0.315,1.464-0.948,3.196-1.501,3.877
			c-2.018,2.449-5.348,4.326-9.146,5.146C437.441,331.512,436.068,331.664,434.731,331.664z M95.186,123.53
			c35.226,0,64.752,9.972,87.74,29.635c18.965,16.219,29.562,35.566,35.116,48.941l11.892,28.639l51.536-91.41l-2.954-6.873
			c-3.25-7.559-6.216-16.115-8.896-25.066c0.954,0.043,1.92,0.067,2.898,0.067c5.111,0,10.543-0.614,16.024-2.188
			c1.738,2.826,3.537,5.572,5.402,8.222c13.338,18.922,25.473,26.974,26.816,27.831l8.137,5.195l8.13-5.195
			c1.343-0.857,13.478-8.908,26.816-27.831c1.865-2.649,3.67-5.396,5.401-8.222c5.481,1.574,10.914,2.188,16.03,2.188
			c0.979,0,1.944-0.024,2.898-0.067c-2.68,8.951-5.646,17.501-8.896,25.066l-2.953,6.873l51.535,91.41l11.893-28.639
			c5.554-13.375,16.151-32.722,35.11-48.941c22.987-19.664,52.514-29.635,87.745-29.635c4.162,0,8.422,0.14,12.767,0.419
			c-7.711,11.813-16.121,27.782-21.098,46.686c-2.4,9.121-9.802,22.921-23.364,34.302c-16.097,13.496-36.459,20.338-60.522,20.338
			c-3.768,0-7.662-0.17-11.588-0.517l-19.457-1.702l3.245,19.263c0.23,1.374,0.438,2.735,0.625,4.12
			c-6.41-2.874-13.131-5.384-20.144-7.499c-7.99-2.413-16.419,2.108-18.831,10.099s2.108,16.419,10.1,18.832
			c25.861,7.808,40.445,20.29,43.994,23.607c-5.451-2.425-11.649-3.768-18.236-3.768c-3.487,0-7.012,0.383-10.476,1.13
			c-10.47,2.272-19.73,7.766-26.074,15.477c-7.092,8.617-9.899,19.366-7.705,29.483c3.402,15.691,17.992,26.877,35.991,27.971
			c-2.528,3.477-5.202,7.061-8.033,10.756c-16.097,21-24.731,43.102-26.396,67.559c-1.428,20.916,2.315,40.111,5.931,58.682
			c4.715,24.186,8.786,45.07,0.528,64.812c-9.114,21.779-33.664,41.777-74.96,61.01c-41.296-19.238-65.852-39.23-74.96-61.01
			c-8.258-19.736-4.187-40.627,0.529-64.812c3.622-18.564,7.358-37.766,5.931-58.682c-1.671-24.457-10.306-46.559-26.396-67.559
			c-2.838-3.701-5.518-7.291-8.045-10.773c17.841-1.209,32.272-12.359,35.651-27.953c2.194-10.123-0.614-20.866-7.705-29.482
			c-6.344-7.711-15.604-13.21-26.074-15.477c-3.464-0.753-6.988-1.13-10.476-1.13c-6.362,0-12.36,1.258-17.677,3.53
			c3.968-3.646,18.473-15.744,43.739-23.37c7.991-2.413,12.512-10.847,10.1-18.832c-2.413-7.99-10.847-12.511-18.832-10.099
			c-7.419,2.236-14.109,4.813-20.101,7.511c0.188-1.385,0.395-2.752,0.626-4.132l3.245-19.262l-19.463,1.701
			c-3.926,0.34-7.821,0.517-11.588,0.517c-24.063,0-44.419-6.842-60.516-20.338c-13.569-11.375-20.97-25.175-23.371-34.296
			c-4.977-18.904-13.387-34.874-21.098-46.686C86.764,123.67,91.023,123.53,95.186,123.53z"/>
		<path d="M302.998,513.457c1.075-0.662,26.591-16.072,51.711-0.055c2.516,1.604,5.329,2.369,8.112,2.369
			c4.989,0,9.875-2.467,12.755-6.988c4.484-7.035,2.418-16.375-4.618-20.865c-41.582-26.52-82.404-1.096-84.124,0l16.249,25.479
			L302.998,513.457z"/>
		<path d="M312.167,573.129c-6.66-30.34-45.878-25.898-45.878-25.898C293.67,587.932,318.827,603.469,312.167,573.129z"/>
		<path d="M346.281,573.129c-6.66,30.34,18.497,14.803,45.878-25.898C392.159,547.23,352.941,542.789,346.281,573.129z"/>
	</g>
</g>
<g>
</g>
<g>
</g>
<g>
</g>
<g>
</g>
<g>
</g>
<g>
</g>
<g>
</g>
<g>
</g>
<g>
</g>
<g>
</g>
<g>
</g>
<g>
</g>
<g>
</g>
<g>
</g>
<g>
</g>
</svg>
