<?xml version="1.0" encoding="iso-8859-1"?>
<!-- Generator: Adobe Illustrator 16.0.0, SVG Export Plug-In . SVG Version: 6.00 Build 0)  -->
<!DOCTYPE svg PUBLIC "-//W3C//DTD SVG 1.1//EN" "http://www.w3.org/Graphics/SVG/1.1/DTD/svg11.dtd">
<svg version="1.1" id="Capa_1" xmlns="http://www.w3.org/2000/svg" xmlns:xlink="http://www.w3.org/1999/xlink" x="0px" y="0px"
	 width="611.999px" height="611.999px" viewBox="0 0 611.999 611.999" style="enable-background:new 0 0 611.999 611.999;"
	 xml:space="preserve">
<g>
	<g>
		<path d="M611.794,28.635h-14.199c-147.31,0-200.499,38.864-219.29,62.967c-22.208-4.118-46.476-6.196-72.303-6.196
			c-25.827,0-50.095,2.084-72.303,6.196c-18.791-24.103-71.981-62.967-219.29-62.967H0.21L0.166,42.834
			c-0.031,8.161-0.625,200.12,0.645,226.762c0.568,11.976,7.522,21.937,19.574,28.051c9.013,4.566,20.938,6.935,34.468,6.891
			c-2.59,40.071-3.171,105.659-3.171,123.623c0,25.436,10.934,48.958,32.497,69.915c16.808,16.334,40.355,31.267,69.991,44.372
			c50.594,22.386,106.645,34.342,135.554,39.483c5.363,0.954,10.839,1.434,16.277,1.434c5.439,0,10.916-0.479,16.278-1.434
			c28.909-5.135,84.961-17.098,135.548-39.483c29.636-13.112,53.184-28.038,69.991-44.372
			c21.563-20.957,32.497-44.479,32.497-69.915c0-17.964-0.574-83.552-3.171-123.623c0.171,0,0.366,0.006,0.512,0
			c13.314,0,25.063-2.388,33.957-6.897c12.051-6.108,19.006-16.075,19.574-28.051c1.27-26.648,0.676-218.601,0.65-226.762
			L611.794,28.635z M317.296,553.887c-7.441,1.32-15.147,1.32-22.588,0c-7.87-1.396-20.111-3.752-34.834-7.182
			c-13.302-13.17-19.865-26.863-19.511-40.766c0.493-19.467,13.997-36.016,21.69-43.892c6.765,2.122,11.83,8.236,12.399,15.519
			c0.233,3.032-0.297,5.925-1.421,8.495c-0.366,0.834,0.253,1.763,1.162,1.763h31.342h31.342c0.909,0,1.522-0.929,1.162-1.763
			c-1.124-2.57-1.661-5.457-1.421-8.495c0.562-7.282,5.634-13.396,12.398-15.519c7.693,7.876,21.191,24.425,21.69,43.892
			c0.354,14.003-6.304,27.798-19.802,41.05C336.718,550.268,324.945,552.522,317.296,553.887z M582.733,268.244
			c-0.152,3.189-9.165,7.807-25.069,7.807c-4.491,0-9.203-0.36-14.01-1.061l-18.229-2.678l1.996,18.317
			c3.626,33.211,4.409,118.267,4.409,137.538c0,17.691-7.807,33.874-23.863,49.481c-14.382,13.972-35.125,27.015-61.659,38.751
			c-17.377,7.687-35.662,14.098-53.051,19.354c4.238-9.911,6.221-20.188,5.918-30.78c-0.909-31.6-22.474-55.911-32.51-65.55v-99.262
			c0-30.685-24.874-77.078-55.553-77.078h-5.577h-5.578c-30.685,0-55.552,46.4-55.552,77.078v99.261
			c-10.037,9.646-31.601,33.957-32.51,65.551c-0.303,10.473,1.636,20.636,5.773,30.451c-17.061-5.198-34.948-11.502-51.958-19.024
			c-26.535-11.742-47.284-24.779-61.66-38.751c-16.056-15.602-23.863-31.79-23.863-49.481c0-19.271,0.783-104.327,4.409-137.538
			l1.996-18.317l-18.229,2.678c-4.807,0.708-9.525,1.061-14.009,1.061c-15.905,0-24.918-4.617-25.07-7.807
			c-0.966-20.073-0.814-142.9-0.695-198.288c2.716,2.388,5.571,5.041,8.477,7.933c12.689,12.639,28.582,32.396,32.245,54.725
			c8.811,53.689,28.101,78.979,28.916,80.028l13.624,17.515L122.5,210.69c0.202-0.373,20.844-37.443,68.886-66.732l-15.166-24.867
			c-31.24,19.05-52.362,41.119-64.9,56.859c-4.826-11.616-9.948-27.792-13.271-48.048C93.395,99.548,75.652,75.54,58.813,58.454
			c46.943,2.943,85.062,10.794,113.668,23.452c29.105,12.879,39.218,26.952,42.218,32.403l5.123,9.323l10.39-2.268
			c22.745-4.958,48.244-7.472,75.783-7.472c27.546,0,53.039,2.514,75.783,7.472l10.391,2.268l5.123-9.323
			c2.993-5.451,13.112-19.517,42.218-32.403c28.885-12.784,67.458-20.667,115.021-23.541c-16.865,17.092-34.658,41.125-39.326,69.53
			c-3.322,20.256-8.444,36.433-13.271,48.048c-12.537-15.734-33.653-37.81-64.899-56.859l-15.166,24.867
			c47.612,29.03,68.696,66.397,68.886,66.732l10.649,19.467l13.624-17.515c0.815-1.048,20.105-26.339,28.916-80.028
			c4.176-25.448,23.8-47.518,39.458-61.521C583.535,127.011,583.68,248.303,582.733,268.244z"/>
		<path d="M214.939,265.061c-7.207-5.047-15.544-8.78-23.326-11.186c-16.745-5.173-42.086-6.929-67.705,14.123l18.09,22.013
			c5.508-4.529,11.129-7.649,16.915-9.386c-1.598,3.291-2.685,6.859-3.133,10.624c-2.381,19.814,13.163,38.03,34.651,40.614
			c1.699,0.202,3.423,0.309,5.122,0.309c19.593,0,36.003-13.567,38.164-31.556C235.582,285.235,226.795,273.367,214.939,265.061z
			 M205.44,297.217c-0.436,3.625-4.775,6.462-9.879,6.462c-0.568,0-1.149-0.038-1.724-0.101c-5.691-0.682-10.251-4.857-9.765-8.925
			c0.436-3.625,4.775-6.461,9.873-6.461c0.568,0,1.149,0.038,1.724,0.101c1.516,0.183,2.969,0.606,4.276,1.226
			c1.516,1.092,2.356,1.819,2.381,1.838l-0.063-0.057l0.177-0.202c0.398,0.328,0.771,0.669,1.105,1.042
			C204.562,293.269,205.699,295.057,205.44,297.217z"/>
		<path d="M420.384,253.881c-7.775,2.406-16.119,6.133-23.326,11.186c-11.855,8.306-20.635,20.174-18.791,35.555
			c2.16,17.989,18.57,31.556,38.163,31.556c1.699,0,3.424-0.101,5.123-0.31c21.488-2.583,37.032-20.8,34.651-40.614
			c-0.455-3.765-1.535-7.327-3.133-10.624c5.785,1.73,11.407,4.857,16.915,9.386l18.09-22.013
			C462.47,246.945,437.129,248.701,420.384,253.881z M418.162,303.578c-0.575,0.069-1.156,0.101-1.725,0.101
			c-5.104,0-9.437-2.836-9.873-6.462c-0.259-2.16,0.878-3.948,1.883-5.065c0.335-0.373,0.714-0.714,1.105-1.042l0.177,0.202
			l-0.063,0.057c0.025-0.019,0.872-0.752,2.382-1.838c1.307-0.619,2.76-1.048,4.275-1.225c0.575-0.069,1.156-0.101,1.725-0.101
			c5.104,0,9.443,2.836,9.879,6.461C428.413,298.72,423.852,302.889,418.162,303.578z"/>
	</g>
</g>
<g>
</g>
<g>
</g>
<g>
</g>
<g>
</g>
<g>
</g>
<g>
</g>
<g>
</g>
<g>
</g>
<g>
</g>
<g>
</g>
<g>
</g>
<g>
</g>
<g>
</g>
<g>
</g>
<g>
</g>
</svg>
