<?xml version="1.0" encoding="iso-8859-1"?>
<!-- Generator: Adobe Illustrator 18.1.1, SVG Export Plug-In . SVG Version: 6.00 Build 0)  -->
<svg version="1.1" id="Capa_1" xmlns="http://www.w3.org/2000/svg" xmlns:xlink="http://www.w3.org/1999/xlink" x="0px" y="0px"
	 viewBox="0 0 50.087 50.087" style="enable-background:new 0 0 50.087 50.087;" xml:space="preserve">
<g>
	<g>
		<path style="fill:#010002;" d="M7.845,10.029c1.959-1.941,4.246-3.556,6.768-4.749c0.999-0.474,1.162-1.371,0.232-1.967
			c-4.68-2.998-10.346-3.157-11.577-2.91C1.841,0.686-1.788,1.107,1.062,2.817c1.779,1.068,3.555,4.45,4.635,6.837
			C6.152,10.66,7.061,10.806,7.845,10.029z"/>
		<path style="fill:#010002;" d="M46.818,0.404c-1.231-0.248-6.903-0.088-11.584,2.914c-0.931,0.597-0.765,1.495,0.233,1.969
			c2.521,1.196,4.809,2.812,6.768,4.758c0.783,0.778,1.691,0.631,2.146-0.375c1.08-2.388,2.859-5.78,4.643-6.852
			C51.875,1.108,48.244,0.687,46.818,0.404z"/>
		<path style="fill:#010002;" d="M25.034,4.968c-12.371,0-22.4,10.026-22.4,22.399c0,12.37,10.029,22.397,22.4,22.397
			c12.37,0,22.398-10.027,22.398-22.397C47.432,14.995,37.404,4.968,25.034,4.968z M30.886,17.753c0.91,0,1.653,0.741,1.653,1.652
			c0,0.912-0.743,1.653-1.653,1.653s-1.651-0.741-1.651-1.653C29.233,18.494,29.973,17.753,30.886,17.753z M19.274,17.753
			c0.911,0,1.654,0.741,1.654,1.652c0,0.912-0.743,1.653-1.654,1.653c-0.91,0-1.653-0.741-1.653-1.653
			C17.621,18.494,18.364,17.753,19.274,17.753z M29.35,40.008H20.5c-4.459,0-8.087-3.291-8.087-7.334
			c0-4.045,3.628-7.334,8.087-7.334h8.85c4.461,0,8.088,3.289,8.088,7.334C37.438,36.717,33.811,40.008,29.35,40.008z"/>
		<path style="fill:#010002;" d="M29.35,27.367H20.5c-3.348,0-6.065,2.376-6.065,5.31c0,2.932,2.717,5.309,6.065,5.309h8.85
			c3.348,0,6.062-2.377,6.062-5.309C35.414,29.743,32.698,27.367,29.35,27.367z M21.493,33.964c-0.569,0.682-2.35,1.094-2.121-0.389
			c0.091-0.586,0.479-1.148,0.916-1.611c0.713-0.756,1.555-0.468,1.541,0.432C21.819,33.026,21.74,33.667,21.493,33.964z
			 M28.573,33.962c-0.247-0.295-0.325-0.937-0.335-1.567c-0.015-0.898,0.829-1.188,1.541-0.431c0.438,0.463,0.825,1.024,0.916,1.61
			C30.923,35.055,29.143,34.644,28.573,33.962z"/>
	</g>
</g>
<g>
</g>
<g>
</g>
<g>
</g>
<g>
</g>
<g>
</g>
<g>
</g>
<g>
</g>
<g>
</g>
<g>
</g>
<g>
</g>
<g>
</g>
<g>
</g>
<g>
</g>
<g>
</g>
<g>
</g>
</svg>
