<?xml version="1.0" encoding="iso-8859-1"?>
<!-- Generator: Adobe Illustrator 16.0.0, SVG Export Plug-In . SVG Version: 6.00 Build 0)  -->
<!DOCTYPE svg PUBLIC "-//W3C//DTD SVG 1.1//EN" "http://www.w3.org/Graphics/SVG/1.1/DTD/svg11.dtd">
<svg version="1.1" id="Capa_1" xmlns="http://www.w3.org/2000/svg" xmlns:xlink="http://www.w3.org/1999/xlink" x="0px" y="0px"
	 width="724.229px" height="724.229px" viewBox="0 0 724.229 724.229" style="enable-background:new 0 0 724.229 724.229;"
	 xml:space="preserve">
<g>
	<g>
		<path d="M229.125,205.363l47.531-44.767C276.656,160.597,201.106,121.801,229.125,205.363z"/>
		<path d="M508.432,205.363L460.9,160.597C460.9,160.597,536.45,121.801,508.432,205.363z"/>
		<g>
			<path d="M352.533,94.917c3.13-0.274,6.337-0.411,9.581-0.411s6.451,0.145,9.581,0.411c9.733,0.846,18.697,2.963,25.475,6.093
				l14.067-30.44c-11.036-5.103-24.813-8.309-39.542-9.284c-3.153-0.206-6.352-0.32-9.581-0.32c-3.229,0-6.42,0.114-9.581,0.32
				c-14.729,0.975-28.506,4.181-39.542,9.284l14.066,30.44C333.836,97.88,342.8,95.763,352.533,94.917z"/>
			<path d="M646.219,170.125c-14.028-33.175-34.112-62.961-59.687-88.535s-55.367-45.657-88.535-59.686
				C463.642,7.365,427.162,0,389.562,0h-17.867h-9.581h-9.581h-17.867c-37.6,0-74.08,7.365-108.428,21.896
				c-33.175,14.028-62.961,34.111-88.535,59.686c-25.574,25.574-45.657,55.36-59.686,88.535
				c-14.539,34.355-21.903,70.836-21.903,108.436V671.32h33.533V402.532l25.308,16.579c3.876-5.917,9.398-11.233,15.704-15.933
				c0.023,9.673,0.541,18.827,1.546,27.479c-12.482,11.744-23.922,27.356-29.725,47.691l32.246,9.207
				c1.714-5.993,4.219-11.432,7.235-16.351c4.158,10.456,9.459,19.679,15.895,27.622c-7.197,15.979-12.505,35.109-13.579,57.607
				l33.495,1.592c0.617-13.008,3.039-25.339,7.228-36.93c11.394,5.766,31.591,4.706,31.591,4.706
				c16.001,76.586,72.762,192.98,75.428,198.426l31.012-12.536c-15.323-47.447-16.839-127.095-15.59-183.346h45.094h9.581h9.581
				h45.094c1.249,56.251-0.267,135.906-15.59,183.346l31.012,12.536c2.666-5.445,59.427-121.84,75.429-198.426
				c0,0,20.197,1.066,31.591-4.706c4.188,11.591,6.61,23.922,7.228,36.93l33.494-1.592c-1.073-22.498-6.382-41.629-13.579-57.607
				c6.436-7.943,11.736-17.166,15.895-27.623c3.016,4.92,5.529,10.351,7.235,16.352l32.246-9.207
				c-5.804-20.335-17.243-35.947-29.726-47.691c1.006-8.651,1.523-17.806,1.546-27.479c6.307,4.699,11.828,10.008,15.704,15.933
				l25.308-16.579v268.796h33.533V278.552C668.114,240.953,660.75,204.472,646.219,170.125z M274.204,598.665
				c-11.949-31.47-22.52-63.959-26.549-89.061c3.686-2.026,7.57-4.197,11.591-6.497c5.072-2.901,10.365-6.001,15.75-9.269
				c-0.343,7.494-0.67,16.009-0.937,25.293C273.404,542.223,273.168,570.06,274.204,598.665z M371.695,494.813h-9.581h-9.581
				h-43.966c0.457-10.228,0.937-18.43,1.279-23.868c7.418-5.231,13.93-9.954,19.832-14.233c9.413-6.824,16.945-12.285,22.855-15.94
				c0.328-0.206,0.647-0.403,0.967-0.594c6.298-3.801,8.385-3.983,8.583-3.991c0.007,0,0.022,0,0.038,0s0.03,0,0.038,0
				c0.198,0.008,2.284,0.19,8.575,3.991c0.32,0.19,0.64,0.388,0.968,0.594c5.909,3.655,13.441,9.116,22.854,15.94
				c5.896,4.279,12.414,9.002,19.832,14.233c0.343,5.438,0.823,13.641,1.279,23.868H371.695z M450.032,598.665
				c1.028-28.605,0.792-56.442,0.145-79.525c-0.259-9.284-0.594-17.807-0.937-25.293c5.385,3.268,10.678,6.367,15.75,9.269
				c4.021,2.3,7.905,4.471,11.591,6.496C472.553,534.706,461.981,567.195,450.032,598.665z M634.581,396.82
				c-11.568-15.507-28.758-26.945-44.88-35.026c-5.385-26.268-17.44-53.928-42.467-74.293c-5.293-4.303-10.556-7.783-15.566-10.609
				c0.183-3.473,0.35-7.616,0.532-12.65c0.16-4.349,0.298-8.69,0.396-12.354c9.924-6.252,24.379-18.194,31.324-37.584
				c7.091-19.816,4.387-41.705-8.027-65.055c-14.211-26.716-31.651-42.497-51.842-46.891c-23.259-5.072-40.25,7.266-42.108,8.69
				l20.373,26.641c0,0-0.084,0.068-0.259,0.19c0.274-0.19,6.823-4.684,15.262-2.666c9.848,2.361,19.862,12.658,28.972,29.786
				c7.745,14.562,9.809,27.272,6.138,37.782c-5.384,15.415-21.758,23.054-22.848,23.541l-10.251,4.09l-0.008,10.997
				c-0.289,13.336-0.837,28.979-1.355,36.884l-2.741,20.174l-0.145-0.023c0.159,0.023,16.389,2.65,32.223,16.093
				c9.954,8.446,19.732,31.332,19.397,31.255l-3.831,16.321l-3.854,16.32c4.615,1.098,11.957,3.291,20.289,6.527
				c0.419,4.669,0.662,9.497,0.724,14.501c0.038,2.978,0.015,5.895-0.054,8.758c-10.357-5.354-17.996-7.806-18.88-8.08
				l-4.988,16.009l-5.064,15.978c0.229,0.076,11.63,3.823,24.5,12.368c-2.079,8.508-4.874,16.078-8.354,22.643
				c-16.358-20.898-32.931-31.149-34.249-31.949l-17.333,28.705l-0.076-0.046c0.121,0.076,12.338,7.715,24.66,23.259
				c1.135,1.439,2.239,2.895,3.305,4.364c0,0-53.364-22.589-83.265-43.357c-10.022-6.961-18.514-13.122-26.001-18.553
				c-18.772-13.617-30.936-22.429-42.542-25.597c-3.184-0.868-6.329-1.317-9.558-1.317c-0.008,0-0.016,0-0.023,0
				c-0.007,0-0.015,0-0.022,0c-3.229,0-6.367,0.449-9.558,1.317c-11.607,3.168-23.762,11.979-42.542,25.597
				c-7.494,5.431-15.986,11.592-26.001,18.553c-29.9,20.769-83.265,43.357-83.265,43.357c1.066-1.47,2.163-2.925,3.305-4.364
				c12.323-15.544,24.539-23.183,24.661-23.259l-0.076,0.046l-17.334-28.705c-1.317,0.8-17.897,11.051-34.249,31.949
				c-3.48-6.564-6.275-14.135-8.354-22.643c12.878-8.545,24.272-12.292,24.5-12.368l-5.049-15.985l-4.996-16.009
				c-0.883,0.274-8.522,2.727-18.88,8.08c-0.068-2.863-0.091-5.772-0.053-8.758c0.061-5.004,0.305-9.832,0.724-14.501
				c8.332-3.236,15.666-5.43,20.289-6.526l-3.854-16.321l-3.831-16.321c-0.335,0.076,9.444-22.802,19.398-31.256
				c15.833-13.442,32.063-16.069,32.223-16.092l-0.145,0.023l-2.742-20.175c-0.518-7.905-1.066-23.548-1.355-36.884l-0.008-10.998
				l-10.251-4.09c-1.082-0.487-17.463-8.126-22.848-23.541c-3.671-10.51-1.6-23.221,6.146-37.783
				c9.108-17.121,19.124-27.425,28.971-29.786c8.431-2.026,14.988,2.467,15.263,2.666c-0.175-0.122-0.259-0.19-0.259-0.19
				l20.373-26.641c-1.858-1.424-18.849-13.762-42.108-8.689c-20.189,4.402-37.63,20.174-51.841,46.891
				c-12.422,23.35-15.125,45.238-8.027,65.055c6.938,19.397,21.401,31.339,31.324,37.584c0.107,3.663,0.236,8.004,0.396,12.353
				c0.183,5.034,0.351,9.177,0.533,12.65c-5.011,2.826-10.274,6.306-15.567,10.609c-25.026,20.365-37.082,48.026-42.466,74.293
				c-16.123,8.081-33.312,19.52-44.881,35.026v-118.26c0-65.443,25.483-126.973,71.765-173.254
				c46.282-46.282,107.803-71.765,173.254-71.765h17.867h9.581h9.581h17.867c65.443,0,126.972,25.482,173.254,71.765
				c46.274,46.274,71.765,107.803,71.765,173.254V396.82z"/>
			<path d="M405.608,229.559c-10.898-5.034-22.284-8.065-33.913-9.071c-3.176-0.274-6.367-0.403-9.581-0.373
				c-3.206-0.03-6.405,0.099-9.581,0.373c-11.637,1.005-23.015,4.044-33.914,9.071c-16.747,7.73-30.067,16.9-39.595,27.242
				c-3.686,4.006-14.912,16.191-9.124,29.39c3.062,6.977,9.847,11.233,18.248,11.478l64.393,4.958l9.581,0.739l9.581-0.739
				l64.393-4.958c8.4-0.251,15.186-4.501,18.247-11.478c5.788-13.198-5.438-25.391-9.124-29.39
				C435.684,246.459,422.356,237.289,405.608,229.559z M371.695,269.748l-9.581,0.739l-9.581-0.739l-34.622-2.666
				c4.288-2.696,9.108-5.285,14.447-7.753c6.527-3.016,13.29-4.981,20.174-5.879c3.176-0.411,6.367-0.602,9.581-0.556
				c3.206-0.045,6.405,0.137,9.581,0.556c6.877,0.898,13.647,2.864,20.174,5.879c5.339,2.468,10.16,5.049,14.448,7.753
				L371.695,269.748z"/>
		</g>
	</g>
</g>
<g>
</g>
<g>
</g>
<g>
</g>
<g>
</g>
<g>
</g>
<g>
</g>
<g>
</g>
<g>
</g>
<g>
</g>
<g>
</g>
<g>
</g>
<g>
</g>
<g>
</g>
<g>
</g>
<g>
</g>
</svg>
