<?xml version="1.0" encoding="iso-8859-1"?>
<!-- Generator: Adobe Illustrator 16.0.0, SVG Export Plug-In . SVG Version: 6.00 Build 0)  -->
<!DOCTYPE svg PUBLIC "-//W3C//DTD SVG 1.1//EN" "http://www.w3.org/Graphics/SVG/1.1/DTD/svg11.dtd">
<svg version="1.1" id="Capa_1" xmlns="http://www.w3.org/2000/svg" xmlns:xlink="http://www.w3.org/1999/xlink" x="0px" y="0px"
	 width="623.965px" height="623.965px" viewBox="0 0 623.965 623.965" style="enable-background:new 0 0 623.965 623.965;"
	 xml:space="preserve">
<g>
	<g>
		<path d="M562.631,188.593c4.89-9.344,7.662-19.962,7.662-31.219c0-16.322-5.815-31.311-15.487-43
			c5.079-9.482,7.97-20.311,7.97-31.803c0-37.264-30.318-67.576-67.575-67.576c-6.683,0-13.143,0.979-19.24,2.792
			C464.206,6.84,447.621,0,429.261,0c-18.865,0-31.58,6.814-43.139,16.283c-12.248-9.593-24.693-14.956-42.889-14.956
			c-12.262,0-23.019,3.844-31.382,8.306c-8.358-4.462-19.122-8.306-31.383-8.306c-18.129,0-30.844,5.553-42.928,14.982
			C225.719,6.63,213.274,0,194.441,0c-18.327,0-34.885,6.814-46.634,17.722c-6.045-1.781-12.432-2.74-19.042-2.74
			c-37.264,0-67.576,30.318-67.576,67.576c0,11.493,2.884,22.322,7.97,31.803c-9.666,11.69-15.488,26.685-15.488,43
			c0,11.256,2.767,21.875,7.655,31.219c-24.234,27.408-44.36,49.926-49.834,55.4c-5.296,5.296-6.919,12.623-4.232,19.115
			c3.962,9.561,14.568,11.65,18.057,12.34c5.053,0.999,11.427,1.505,18.944,1.505c18.931,0,41.463-3.115,61.807-8.549
			c15.455-4.126,27.874-9.094,37.77-14.147v198.383c0,32.283,11.736,63.398,33.039,87.605
			c12.557,14.271,27.907,25.561,44.919,33.268c3.115,9.023,8.687,17.525,16.401,24.891c8.509,8.129,19.214,14.576,30.956,18.637
			c13.253,4.586,28.176,6.938,43.066,6.938c8.174,0,16.348-0.709,24.227-2.148c26.027-4.75,46.818-17.17,58.527-34.977
			c2.938-4.461,5.205-8.943,6.795-13.393c16.966-7.707,32.276-18.982,44.808-33.223c21.303-24.213,33.038-55.32,33.038-87.604
			V254.04c34.472,17.722,77.965,22.919,100.09,22.919l0,0c15.461,0,31.947-1.643,37.001-13.845
			c2.688-6.492,1.064-13.812-4.232-19.115C606.999,238.526,586.872,216.007,562.631,188.593z M525.243,239.499
			c-16.309-4.383-30.167-10.198-40.818-17.065c-3.634-2.339-6.894-4.803-9.745-7.373l-24.891-22.44v6.722v253.292
			c0,25.021-9.095,49.145-25.607,67.904c-16.368,18.602-38.821,30.674-63.232,33.992l-0.591,0.092
			c-0.053,0.006-5.105,0.873-12.005,0.873c-8.549,0-16.014-1.314-21.73-3.766v-96.35c11.439-2.293,21.993-7.215,30.627-14.43
			c13.063-10.908,20.259-25.641,20.259-41.488h-29.819c0,6.854-3.391,13.457-9.555,18.596c-6.938,5.789-16.322,8.982-26.427,8.982
			c-10.106,0-19.49-3.188-26.429-8.982c-6.157-5.146-9.554-11.75-9.554-18.596h-29.819c0,15.848,7.195,30.58,20.258,41.488
			c8.634,7.209,19.194,12.131,30.634,14.43v96.357c-5.717,2.451-13.175,3.764-21.73,3.764c-6.899,0-11.953-0.859-11.959-0.867
			l-0.631-0.098c-24.404-3.318-46.857-15.389-63.226-33.992c-16.513-18.76-25.607-42.881-25.607-67.904v-252.66v-6.499
			l-24.792,21.96c-2.747,2.431-5.875,4.771-9.324,6.998c-10.724,6.913-24.713,12.767-41.167,17.157
			c-15.921,4.251-33.913,6.965-49.171,7.458c8.681-9.64,19.752-22.085,31.652-35.529c3.253-3.673,6.564-7.425,9.909-11.21
			c3.299-3.732,6.624-7.504,9.949-11.276c8.318-9.442,16.631-18.892,24.463-27.815c9.383,5.553,19.969,9.088,31.061,10.323
			c2.707,0.302,5.447,0.473,8.201,0.499c2.458,0.02,4.941-0.033,7.438-0.158c5.277-0.256,10.586-0.808,15.692-1.518
			c12.563-1.754,23.931-4.508,30.712-6.328c14.43,7.912,29.668,11.92,45.373,11.92c21.066,0,38.283-7.366,48.198-12.866
			c9.915,5.5,27.131,12.866,48.197,12.866c15.711,0,30.942-4.001,45.373-11.92c6.833,1.84,18.312,4.613,30.975,6.368
			c5.112,0.709,10.415,1.248,15.692,1.498c2.03,0.092,4.054,0.151,6.064,0.151c0.375,0,0.742,0,1.11-0.006
			c2.839-0.026,5.658-0.204,8.444-0.526c11.071-1.268,21.631-4.823,30.988-10.395c7.858,8.95,16.204,18.438,24.549,27.913
			c3.325,3.772,6.65,7.544,9.942,11.276c3.345,3.785,6.656,7.537,9.909,11.21c11.899,13.451,22.965,25.889,31.646,35.529
			C559.379,246.549,541.263,243.809,525.243,239.499z M131.458,44.913c-0.263,1.064-0.499,2.129-0.696,3.213
			c-19.937,9.127-33.992,25.89-38.158,45.287c-1.032-3.437-1.597-7.077-1.597-10.849c0-20.816,16.94-37.756,37.757-37.756
			C129.671,44.808,130.565,44.854,131.458,44.913z M175.819,34.117c5.381-2.714,11.775-4.291,18.622-4.291
			c12.386,0,18.753,4.094,32.848,17.229l10.264,9.574l10.172-9.666c12.906-12.262,20.252-15.81,32.743-15.81
			c9.219,0,17.505,4.442,22.828,8.174l8.549,5.986l8.548-5.986c5.322-3.726,13.608-8.174,22.827-8.174
			c12.558,0,19.602,3.404,32.776,15.843l10.237,9.666l10.238-9.666c13.417-12.669,20.383-17.17,32.775-17.17
			c6.926,0,13.372,1.61,18.793,4.376c4.764,2.418,8.713,5.73,11.486,9.627c2.799,3.936,4.396,8.463,4.396,13.28
			c0,0.269-0.02,0.532-0.026,0.801l-0.164,3.818l-0.335,7.846l11.053,3.365c10.401,3.167,18.688,9.37,23.504,17.032
			c2.839,4.514,4.469,9.535,4.613,14.745c0.006,0.25,0.02,0.5,0.02,0.756c0,4.074-0.881,8.108-2.55,11.946
			c-0.354,0.808-0.742,1.61-1.163,2.405c-0.059,0.111-0.118,0.229-0.178,0.348c-1.892,3.443-4.455,6.689-7.622,9.633
			c-0.203,0.191-0.4,0.381-0.611,0.572c-1.603,1.439-3.312,2.747-5.099,3.936c-2.175,1.446-4.475,2.694-6.873,3.758
			c-3.135,1.387-6.446,2.445-9.87,3.141c-1.813,0.368-3.653,0.644-5.52,0.815c-1.354,0.125-2.72,0.197-4.094,0.21
			c-2.188,0.02-4.415-0.046-6.669-0.17c-5.021-0.283-10.133-0.894-15.021-1.663c-15.843-2.484-29.3-6.624-29.484-6.676l-6.584-2.057
			l-5.828,3.687c-11.315,7.156-23.209,10.79-35.346,10.79c-22.354,0-38.531-12.032-39.209-12.544l-8.988-6.801l-8.989,6.794
			c-0.677,0.513-16.854,12.551-39.209,12.551c-12.137,0-24.03-3.627-35.345-10.79l-5.829-3.68l-6.578,2.043
			c-0.19,0.059-13.51,4.159-29.247,6.65c-4.876,0.769-9.988,1.386-15.015,1.682c-2.05,0.118-4.087,0.184-6.091,0.184
			c-0.276,0-0.559,0-0.834,0c-1.301-0.013-2.589-0.085-3.877-0.19c-1.847-0.158-3.673-0.414-5.46-0.775
			c-3.457-0.683-6.801-1.728-9.968-3.114c-2.444-1.071-4.79-2.339-6.998-3.805c-1.807-1.196-3.535-2.523-5.158-3.976
			c-0.158-0.145-0.309-0.296-0.467-0.44c-3.233-2.983-5.848-6.282-7.773-9.784c-0.065-0.111-0.118-0.23-0.177-0.348
			c-0.388-0.723-0.743-1.452-1.071-2.195c-1.729-3.896-2.635-7.99-2.635-12.136c0-0.25,0.013-0.506,0.02-0.756
			c0.145-5.21,1.78-10.237,4.625-14.758c4.817-7.648,13.103-13.852,23.491-17.012l11.046-3.364l-0.354-8.247l-0.145-3.404
			c-0.013-0.27-0.026-0.539-0.026-0.808c0-4.876,1.643-9.456,4.501-13.425C167.086,39.8,171.055,36.515,175.819,34.117z
			 M495.201,44.808c20.816,0,37.757,16.94,37.757,37.756c0,3.949-0.611,7.761-1.741,11.342c-4.035-19.608-18.162-36.574-38.27-45.78
			c-0.19-1.077-0.434-2.135-0.69-3.193C493.229,44.86,494.208,44.808,495.201,44.808z M523.344,143.996
			c4.015-1.846,7.812-4.074,11.361-6.637c3.646,5.809,5.763,12.669,5.763,20.022c0,1.912-0.145,3.785-0.421,5.618
			C534.495,156.678,528.89,150.304,523.344,143.996z M83.491,157.375c0-7.353,2.116-14.213,5.763-20.021
			c3.548,2.562,7.346,4.79,11.361,6.637c-5.546,6.308-11.145,12.682-16.71,19.003C83.635,161.16,83.491,159.287,83.491,157.375z
			 M331.09,592.498c-17.084,3.121-36.593,1.76-52.186-3.635c-2.931-1.012-5.729-2.24-8.365-3.633
			c1.433,0.059,2.957,0.092,4.547,0.092c16.355,0,28.249-3.477,36.626-7.637c12.398,6.164,26.271,7.637,36.652,7.637
			c1.63,0,3.181-0.033,4.633-0.092C346.73,588.521,339.344,590.992,331.09,592.498z"/>
		<path d="M261.722,217.059c-0.335-0.375-0.67-0.742-1.019-1.11c-7.083-7.294-16.947-12.104-27.769-13.53
			c-2.214-0.295-4.455-0.44-6.669-0.44c-21.402,0-38.696,13.365-41.128,31.777c-1.373,10.402,2.359,21.021,10.244,29.143
			c7.083,7.293,16.947,12.104,27.775,13.536c2.215,0.289,4.456,0.44,6.67,0.44c8.673,0,16.67-2.194,23.281-6.032
			c0.723,5.664,1.176,12.248,1.176,19.89h29.819C284.089,241.477,267.931,222.519,261.722,217.059z M241.384,241.188
			c-0.368,2.773-5.211,5.861-11.571,5.861c-0.907,0-1.84-0.059-2.76-0.184c-8.023-1.058-12.754-6.243-12.36-9.206
			c0.368-2.773,5.205-5.861,11.565-5.861c0.907,0,1.84,0.059,2.76,0.184c4.14,0.545,7.892,2.273,10.284,4.744
			C240.018,237.448,241.627,239.341,241.384,241.188z"/>
		<path d="M397.188,201.979c-2.215,0-4.455,0.151-6.67,0.44c-10.822,1.433-20.685,6.236-27.769,13.53
			c-0.354,0.361-0.684,0.736-1.019,1.11c-6.203,5.46-22.367,24.418-22.367,73.674h29.818c0-7.636,0.454-14.22,1.177-19.891
			c6.61,3.831,14.601,6.032,23.274,6.032l0,0c2.208,0,4.448-0.151,6.663-0.44c10.822-1.433,20.686-6.236,27.769-13.536
			c7.885-8.122,11.617-18.747,10.244-29.143C435.891,215.337,418.589,201.979,397.188,201.979z M396.4,246.865
			c-0.92,0.125-1.854,0.184-2.76,0.184l0,0c-6.361,0-11.204-3.088-11.572-5.868c-0.243-1.846,1.374-3.739,2.077-4.461
			c2.392-2.471,6.144-4.199,10.283-4.745c0.92-0.125,1.853-0.184,2.76-0.184c6.36,0,11.203,3.089,11.564,5.868
			C409.147,240.622,404.417,245.807,396.4,246.865z"/>
	</g>
</g>
<g>
</g>
<g>
</g>
<g>
</g>
<g>
</g>
<g>
</g>
<g>
</g>
<g>
</g>
<g>
</g>
<g>
</g>
<g>
</g>
<g>
</g>
<g>
</g>
<g>
</g>
<g>
</g>
<g>
</g>
</svg>
