<?xml version="1.0" encoding="iso-8859-1"?>
<!-- Generator: Adobe Illustrator 16.0.0, SVG Export Plug-In . SVG Version: 6.00 Build 0)  -->
<!DOCTYPE svg PUBLIC "-//W3C//DTD SVG 1.1//EN" "http://www.w3.org/Graphics/SVG/1.1/DTD/svg11.dtd">
<svg version="1.1" id="Capa_1" xmlns="http://www.w3.org/2000/svg" xmlns:xlink="http://www.w3.org/1999/xlink" x="0px" y="0px"
	 width="612px" height="612px" viewBox="0 0 612 612" style="enable-background:new 0 0 612 612;" xml:space="preserve">
<g>
	<g>
		<path d="M282.015,419.032c-11.209,0-16.826,14.497-8.899,22.424l24.285,24.759c4.911,4.917,12.879,5.148,17.796,0.236
			l24.285-25.113c7.927-7.927,2.316-22.312-8.899-22.312h-48.568V419.032z"/>
		<path d="M611.811,400.886c-0.848-16.464-4.55-34.189-11.008-52.68c-9.716-27.833-26.038-57.817-45.251-83.315
			c7.092-24.296,9.604-48.83,7.465-73.025c-1.878-21.28-7.34-42.289-16.227-62.455c-15.132-34.326-35.056-54.446-35.896-55.281
			l-5.593-5.581l-7.678,1.866c-29.711,7.216-54.878,23.419-74.802,48.166c-12.062,14.983-20.31,30.742-25.7,43.811
			c-23.982-5.847-47.26-9.242-76.882-10.137v0.178h-13.94h-0.285h-0.314h-15.083v-0.178c-23.698,0.895-52.325,4.295-76.307,10.137
			c-5.397-13.069-13.318-28.828-25.38-43.811c-19.924-24.747-44.966-40.95-74.677-48.166l-7.619-1.866l-5.557,5.581
			c-0.841,0.841-20.753,20.961-35.884,55.281c-8.887,20.167-14.337,41.175-16.221,62.456c-2.139,24.201,0.379,48.729,7.471,73.025
			c-19.219,25.499-35.535,55.488-45.25,83.315c-6.452,18.49-10.155,36.21-11.002,52.68C-0.8,420.058,2.085,437.617,8.75,453.08
			l13.514,31.334l12.512-31.749c4.734-12.003,13.348-18.276,21.032-21.553c-0.071,5.646-0.178,12.074-0.296,18.152l-0.669,33.805
			l24.462-23.336c16.197-15.451,39.054-18.117,67.923-7.921c13.952,4.929,26.156,12.21,33.9,17.104
			c54.558,38.195,107.167,74.535,107.167,74.535h17.999h17.999c0,0,55.399-38.242,111.45-77.533
			c7.411-4.372,17.323-9.722,28.449-13.709c29.137-10.438,52.183-7.938,68.498,7.619l24.462,23.289l-0.669-33.823
			c-0.119-6.078-0.226-12.518-0.297-18.164c7.685,3.276,16.299,9.538,21.032,21.547l12.513,31.749l13.514-31.34
			C609.921,437.617,612.8,420.058,611.811,400.886z M209.174,351.938c0-10.362,8.431-18.793,18.792-18.793
			s18.792,8.431,18.792,18.793c0,10.361-8.431,18.792-18.792,18.792S209.174,362.3,209.174,351.938z M384.638,370.73
			c-10.361,0-18.792-8.431-18.792-18.792c0-10.362,8.431-18.793,18.792-18.793c10.362,0,18.793,8.431,18.793,18.793
			C403.425,362.3,395,370.73,384.638,370.73z M583.592,414.944c-16.481-13.282-35.576-15.22-40.629-15.498l-6.145-0.332
			l-4.419,4.266c-4.461,4.308-4.461,8.691-4.461,15.955c0,1.22,0.006,2.618,0.018,4.194c-7.791-3.199-16.156-5.119-25.031-5.735
			c4.609-3.341,9-6.553,13.123-9.592c18.004-13.276,19.526-39.628,3.211-54.931c-46.607-43.723-137.204-111.99-186.068-32.218
			l0.059,69.997c0,0,10.326,15.837,34.196,24.095c23.467,8.123,36.287,8.703-56.33,74.175c-2.885,2.037-6.748,2.037-9.633,0
			c-92.611-65.472-79.796-66.046-56.33-74.175c23.87-8.264,34.196-24.094,34.196-24.094l0.065-69.998
			c-48.859-79.772-139.461-11.511-186.069,32.218c-16.316,15.309-14.793,41.654,3.211,54.931c4.106,3.027,8.484,6.227,13.076,9.562
			c-9.083,0.574-17.631,2.5-25.582,5.771c0.012-1.576,0.018-2.98,0.018-4.194c0-7.264,0-11.647-4.461-15.955l-4.431-4.271
			l-6.138,0.338c-5.054,0.278-24.148,2.216-40.63,15.498c-1.327-20.575,3.792-41.465,9.373-57.455
			c9.485-27.163,25.996-56.697,45.31-81.028l2.032-2.56c23.449-25.167,74.411-49.854,74.411-49.854
			c-14.077-62.888-56.318-76.964-56.318-76.964c-17.595,19.195-24.45,46.223-26.536,70.927c-0.438-7.696-0.355-15.368,0.285-22.987
			c1.522-18.087,6.084-36.009,13.567-53.261c8.549-19.716,19.047-34.154,25.22-41.714c20.096,6.529,37.383,18.674,51.483,36.187
			c13.597,16.891,21.37,35.15,25.493,47.49l4.278,12.797l12.968-3.727c14.474-4.159,29.747-7.299,45.713-9.408
			c13.952,9.864,30.481,25.599,30.481,44.812c0,33.248,0.877,58.303,20.119,58.303c19.249,0,20.119-25.055,20.119-58.303
			c0-19.166,16.452-34.877,30.387-44.741c15.789,2.109,30.896,5.226,45.216,9.343l12.968,3.727l4.278-12.797
			c4.123-12.346,11.896-30.605,25.492-47.49c14.101-17.519,31.399-29.669,51.507-36.192c6.043,7.376,16.228,21.358,24.765,40.73
			c7.643,17.341,12.335,35.369,13.946,53.575c0.568,6.428,0.734,12.886,0.533,19.367c-2.5-23.502-9.545-48.545-26.121-66.632
			c0,0-42.235,14.083-56.317,76.964c0,0,46.69,22.62,71.247,46.625l4.592,5.788c19.313,24.332,35.83,53.865,45.315,81.028
			C579.801,373.474,584.92,394.369,583.592,414.944z"/>
	</g>
</g>
<g>
</g>
<g>
</g>
<g>
</g>
<g>
</g>
<g>
</g>
<g>
</g>
<g>
</g>
<g>
</g>
<g>
</g>
<g>
</g>
<g>
</g>
<g>
</g>
<g>
</g>
<g>
</g>
<g>
</g>
</svg>
