<?xml version="1.0" encoding="iso-8859-1"?>
<!-- Generator: Adobe Illustrator 16.0.0, SVG Export Plug-In . SVG Version: 6.00 Build 0)  -->
<!DOCTYPE svg PUBLIC "-//W3C//DTD SVG 1.1//EN" "http://www.w3.org/Graphics/SVG/1.1/DTD/svg11.dtd">
<svg version="1.1" id="Capa_1" xmlns="http://www.w3.org/2000/svg" xmlns:xlink="http://www.w3.org/1999/xlink" x="0px" y="0px"
	 width="612.007px" height="612.006px" viewBox="0 0 612.007 612.006" style="enable-background:new 0 0 612.007 612.006;"
	 xml:space="preserve">
<g>
	<g>
		<path d="M611.581,392.045c-1.237-32.711-5.189-62.848-11.735-89.558c-8.163-33.303-20.45-61.477-36.522-83.783l-0.699-1.051
			c-0.299-0.452-6.094-9.094-17.09-21.813c14.802-18.754,21.894-44.639,22.286-64.87c0.166-8.595-1.038-16.645-2.202-24.435
			c-1.018-6.799-1.982-13.226-1.909-19.353c0.153-13.172,2.349-27.309,6.52-42.018l5.974-21.069l-21.195,2.096
			c-0.852,0.013-1.696,0.106-2.541,0.266c-43.82,4.59-79.725,16.864-106.721,36.51c-16.892,12.294-27.769,25.652-34.714,37.121
			c-9.553-3.612-19.259-6.719-29.019-9.28c-11.017-29.644-24.408-50.394-39.862-61.736l-25.879-18.994l2.169,32.026
			c0.021,0.24,1.304,21.521-1.796,40.82c-2.269-0.053-4.537,1.251-6.799,1.251h-7.678c-2.255,0-4.524-1.304-6.792-1.251
			c-3.08-19.246-1.816-39.922-1.803-40.155l2.168-32.358l-25.878,18.827C254.409,40.581,241.023,61.244,230,90.888
			c-9.76,2.561-19.466,5.628-29.019,9.24c-6.952-11.469-17.822-24.854-34.72-37.142c-27.163-19.778-63.353-32.092-107.566-36.609
			c-0.565-0.093-1.138-0.16-1.71-0.18l-21.175-2.103l5.974,21.069c4.171,14.709,6.367,28.846,6.52,42.018
			c0.073,6.121-0.892,12.547-1.909,19.346c-1.164,7.784-2.368,15.84-2.202,24.435c0.393,20.23,7.484,46.116,22.286,64.87
			c-10.997,12.72-16.791,21.361-17.09,21.814l-0.705,1.058c-16.073,22.3-28.354,50.473-36.516,83.776
			c-6.546,26.717-10.498,56.847-11.742,89.558c-2.095,55.356,4.218,98.678,4.484,100.494l11.037,74.236l18.202-72.806
			c2.927-11.695,7.597-20.563,12.64-27.229c1.364,7.637,3.513,15.746,6.439,24.289c5.502,16.072,11.842,27.94,12.108,28.439
			l17.39,32.358l10.092-35.319c2.355-8.256,9.566-14.282,16.618-18.367c13.458,26.816,38.08,48.317,72.088,62.74
			c13.438,5.701,26.191,9.394,36.183,11.735c7.531,13.458,19.007,22.101,33.456,24.888c15.234,2.94,29.192,4.431,41.466,4.431
			c6.054,0,10.458-0.379,13.199-0.719c2.742,0.34,7.145,0.719,13.2,0.719c12.28,0,26.23-1.49,41.465-4.431
			c14.417-2.781,25.866-11.39,33.396-24.788c10.059-2.335,22.984-6.054,36.609-11.835c34.008-14.43,58.623-35.924,72.088-62.74
			c7.052,4.091,14.263,10.111,16.618,18.367l10.092,35.319l17.39-32.358c0.267-0.499,6.606-12.367,12.108-28.439
			c2.927-8.549,5.069-16.658,6.439-24.296c5.043,6.666,9.713,15.534,12.633,27.229l18.202,72.806l11.023-74.236
			C607.363,490.716,613.677,447.401,611.581,392.045z M534.132,79.439c-0.141,2.488-0.233,4.956-0.26,7.397
			c-0.1,8.522,1.084,16.452,2.235,24.116c1.024,6.866,1.995,13.352,1.883,19.439c-0.267,13.604-4.863,30.888-13.339,43.495
			c-7.231-9.32-15.693-24.136-15.281-42.098C509.77,114.485,518.085,96.962,534.132,79.439z M75.906,110.952
			c1.151-7.67,2.335-15.593,2.235-24.116c-0.026-2.302-0.106-4.63-0.233-6.972c15.707,17.29,23.883,34.574,24.355,51.657
			c0.499,17.942-7.837,32.738-15.068,42.118c-8.369-12.58-12.906-29.73-13.172-43.249C73.91,124.304,74.881,117.818,75.906,110.952z
			 M372.387,545.953c-1.104,4.943-2.848,9.933-5.589,13.964c-2.813,4.132-6.665,7.259-11.968,8.283
			c-0.646,0.126-1.271,0.239-1.909,0.359c-15.667,2.907-27.043,3.532-33.901,3.532c-6.772,0-10.205-0.579-10.578-0.646l-2.622-0.466
			l-2.621,0.466c-0.373,0.066-3.812,0.646-10.578,0.646c-6.819,0-18.088-0.619-33.602-3.479c-0.732-0.133-1.457-0.267-2.209-0.412
			c-2.142-0.413-7.337-1.424-11.868-8.149c-1.962-2.907-3.792-6.879-5.202-12.348c-0.133-0.525-0.246-1.051-0.366-1.576
			c-0.579-2.516-0.998-4.99-1.284-7.325c2.142,0.593,4.337,1.131,6.566,1.624c5.103,1.124,10.412,1.995,15.833,2.674
			c5.229,0.652,10.564,1.124,15.919,1.457c9.926,0.618,19.912,0.771,29.411,0.771c9.607,0,19.726-0.159,29.771-0.798
			c5.349-0.34,10.678-0.818,15.906-1.478c5.415-0.685,10.718-1.563,15.807-2.701c2.136-0.472,4.231-0.99,6.287-1.557
			C373.318,541.083,372.926,543.511,372.387,545.953z M391.247,485.667c-0.772,9.027-5.083,16.352-17.138,21.475
			c-2.567,1.091-5.502,2.089-8.814,2.974c-3.952,1.058-8.462,1.976-13.598,2.728c-7.345,1.077-15.974,1.843-26.078,2.262
			c-4.97,0.206-10.292,0.326-15.993,0.366c-1.251,0.006-2.508,0.013-3.799,0.013c-1.284,0-2.548-0.007-3.799-0.013
			c-5.568-0.034-10.771-0.153-15.633-0.353c-10.052-0.406-18.654-1.151-25.985-2.202c-5.528-0.799-10.338-1.77-14.516-2.921
			c-3.127-0.858-5.901-1.81-8.356-2.854c-12.048-5.13-16.358-12.447-17.137-21.475c-0.093-1.059-0.14-2.143-0.14-3.247
			c0-1.351,0.067-2.714,0.193-4.085c0.06-0.672,0.133-1.344,0.227-2.021c0.798-5.954,2.734-12.055,5.655-18.042
			c2.122-4.338,4.756-8.615,7.87-12.727c2.947-3.892,6.313-7.638,10.052-11.144c0.206-0.192,0.413-0.386,0.619-0.578
			c17.031-15.674,38.672-24.309,60.944-24.309c22.274,0,43.915,8.635,60.945,24.309c0.08,0.072,0.153,0.146,0.233,0.219
			c3.766,3.486,7.158,7.212,10.125,11.09c3.134,4.092,5.795,8.35,7.95,12.667c3.054,6.141,5.069,12.407,5.888,18.515
			c0.093,0.678,0.159,1.35,0.226,2.021c0.127,1.371,0.193,2.734,0.193,4.078C391.38,483.532,391.333,484.609,391.247,485.667z
			 M241.922,398.578c2.249-4.883,4.477-9.36,6.593-13.365c5.488-2.761,16.791-7.724,31.926-10.684
			c0.399-0.08,0.798-0.16,1.204-0.233c16.539-3.073,32.938-2.986,49.05,0.233c11.017,2.202,21.9,5.867,32.604,10.99
			c2.342,4.45,4.484,8.814,6.44,13.065c-19.2-12.287-41.28-18.9-63.913-18.9C283.188,379.684,261.115,386.297,241.922,398.578z
			 M581.564,440.07c-9.32-9.572-18.634-14.935-24.143-17.556l-26.876-12.793l5.834,29.185c2.502,12.507-1.171,28.872-5.881,42.65
			c-7.205-6.44-17.17-12.641-30.941-17.424l-14.39-4.996l-4.696,14.496c-12.215,37.688-49.256,56.441-76.944,65.408
			c0.319-3.419,0.459-6.499,0.506-9.047c33.17-14.084,55.702-45.357,65.335-90.908c7.312-34.561,4.684-65.315,4.563-66.605
			l-3.199-35.818l-23.092,27.568c-10.811,12.906-26.138,26.99-42.876,40.748c-4.384-11.562-9.938-23.943-16.964-36.896
			c-7.857-14.477-11.077-30.402-9.067-44.832c0.186-1.344,0.432-2.668,0.712-3.985c7.956,6.486,18.693,10.372,30.322,10.372l0,0
			c2.834,0,5.688-0.24,8.476-0.705c12.68-2.129,23.417-8.901,29.464-18.574c5.109-8.183,6.446-17.696,3.759-26.797
			c-2.068-6.999-6.366-13.099-12.134-17.836c0.379-0.113,0.751-0.226,1.131-0.333c8.974-2.568,25.579-5.801,36.004,1.45
			l17.03-24.495c-33.589-23.357-86.344-0.047-111.697,20.137c-26.504,21.096-37.773,53.167-32.112,86.058
			c-29.85-8.549-56.215-6.958-74.942-3.3c-4.53,0.885-8.788,1.916-12.747,3.027c5.555-32.798-5.728-64.75-32.159-85.786
			c-25.359-20.184-78.108-43.495-111.697-20.137l17.031,24.495c8.854-6.153,22.679-5.435,36.789-1.244
			c-5.183,4.583-8.868,10.464-10.405,17.197c-2.328,10.225,0.565,21.122,7.937,29.91c6.486,7.73,15.946,13.332,26.637,15.768
			c3.852,0.878,7.777,1.323,11.648,1.323c9.46,0,18.142-2.688,24.987-7.305c0.04,0.253,0.086,0.499,0.12,0.759
			c2.009,14.43-1.21,30.355-9.067,44.832c-7.138,13.158-12.753,25.726-17.17,37.44c-16.997-13.931-32.584-28.214-43.541-41.299
			l-23.091-27.568l-3.2,35.817c-0.113,1.29-2.747,32.052,4.564,66.605c9.719,45.95,32.564,77.363,66.22,91.268
			c0.053,2.468,0.193,5.401,0.492,8.642c-27.628-8.961-64.357-27.682-76.572-65.368l-4.697-14.496l-14.389,4.996
			c-13.791,4.79-23.757,10.996-30.968,17.442c-4.703-13.75-8.369-30.096-5.854-42.669l5.834-29.186L54.571,422.5
			c-5.521,2.628-14.862,8.01-24.202,17.616c-0.579-13.811-0.792-29.817-0.146-46.954c1.81-47.732,10.844-113.946,43.608-158.332
			l6.393-8.662l-0.046-0.06c3.619-4.644,8.854-11.003,15.614-18.328l0,0c1.523-1.231,37.348-30.722,36.277-76.685
			c-0.519-22.373-9.54-44.2-26.917-65.249c16.811,5.302,31.374,12.387,43.535,21.235c18.395,13.385,27.342,27.961,31.613,37.833
			l5.921,13.691l13.691-5.928c14.576-6.307,29.644-11.29,44.785-14.795l8.076-1.869l2.674-7.85
			c3.12-9.154,6.48-17.443,10.006-24.734c0.838,5.921,2.002,11.928,3.612,17.663l3.273,11.688l12.114-1.118
			c5.841-0.399,11.789-0.891,17.676-0.891h7.678c5.888,0,11.835,0.485,17.676,0.891l12.114,0.978l3.273-11.622
			c1.603-5.734,2.773-11.708,3.612-17.629c3.525,7.292,6.885,15.601,10.005,24.754l2.675,7.856l8.076,1.876
			c15.142,3.506,30.21,8.489,44.785,14.795l13.691,5.927l5.921-13.691c4.271-9.873,13.226-24.448,31.613-37.833
			c12.041-8.761,26.431-15.793,43.035-21.082c-17.29,20.996-26.265,42.776-26.783,65.096c-1.064,45.963,34.753,75.454,36.276,76.685
			c0.366,0.299,0.745,0.572,1.131,0.832c6.414,6.999,11.396,13.066,14.883,17.536l-0.047,0.067l6.366,8.628
			C580.174,291.757,583.886,383.996,581.564,440.07z M409.229,439.618c1.75-1.37,3.473-2.721,5.169-4.071
			c10.838-8.602,20.55-16.805,29.105-24.575c-2.062,20.909-7.584,46.994-21.488,66.905c-0.292,0.413-0.585,0.825-0.878,1.238
			c-0.02-0.406-0.033-0.812-0.06-1.225c-0.087-1.477-0.227-2.954-0.399-4.431C419.314,461.991,415.396,450.501,409.229,439.618z
			 M396.282,290.373c1.158-1.856,4.158-4.138,9.102-4.963c1.164-0.193,2.354-0.292,3.539-0.292c7.118,0,12.952,3.566,13.938,6.905
			c0.186,0.639,0.266,1.384-0.446,2.521c-1.157,1.856-4.158,4.131-9.101,4.963c-1.164,0.193-2.355,0.292-3.539,0.292l0,0
			c-7.118,0-12.953-3.572-13.944-6.905C395.644,292.256,395.571,291.511,396.282,290.373z M217.999,295.649
			c-0.399,1.763-4.264,4.311-10.205,4.311c-1.65,0-3.34-0.193-5.023-0.579c-4.317-0.985-8.116-3.12-10.411-5.854
			c-1.277-1.523-1.929-3.1-1.703-4.104c0.399-1.763,4.264-4.311,10.205-4.311c1.65,0,3.34,0.193,5.023,0.579
			c4.317,0.984,8.116,3.12,10.411,5.854C217.58,293.067,218.232,294.638,217.999,295.649z M202.152,440.09
			c-6.014,10.737-9.839,22.06-11.183,33.362c-0.173,1.478-0.312,2.954-0.399,4.431c-0.02,0.353-0.033,0.705-0.046,1.058
			c-0.02,0.433-0.047,0.865-0.053,1.298c-15.168-20.178-21.049-47.52-23.191-69.268c8.742,7.95,18.701,16.339,29.831,25.154
			C198.76,437.442,200.443,438.759,202.152,440.09z"/>
		<path d="M264.082,448.493c-4.291,2.148-8.329,5.521-11.582,10.139c-2.681,3.798-4.816,8.441-6.121,13.917
			c-0.459,1.936-0.812,3.984-1.051,6.134c-0.486,4.384-0.486,9.193,0.133,14.456c0,0,13.864,0.672,26.937-2.921
			c5.754-1.576,11.349-3.984,15.554-7.637c1.351-1.178,2.561-2.481,3.579-3.926c1.843-2.614,3.08-5.694,3.466-9.32
			c0.18-1.663,0.18-3.438-0.026-5.349C293.147,447.029,277.42,441.82,264.082,448.493z"/>
		<path d="M365.148,472.029c-1.363-5.448-3.56-10.045-6.287-13.804c-3.332-4.59-7.45-7.91-11.808-9.979
			c-13.226-6.287-28.58-0.991-30.383,15.739c-0.18,1.703-0.193,3.3-0.073,4.804c0.319,3.865,1.577,7.118,3.513,9.859
			c0.932,1.317,2.009,2.508,3.213,3.599c4.092,3.706,9.6,6.167,15.308,7.797c13.252,3.785,27.556,3.094,27.556,3.094
			c0.611-5.256,0.618-10.072,0.133-14.449C366.06,476.34,365.667,474.119,365.148,472.029z"/>
	</g>
</g>
<g>
</g>
<g>
</g>
<g>
</g>
<g>
</g>
<g>
</g>
<g>
</g>
<g>
</g>
<g>
</g>
<g>
</g>
<g>
</g>
<g>
</g>
<g>
</g>
<g>
</g>
<g>
</g>
<g>
</g>
</svg>
