<?xml version="1.0" encoding="iso-8859-1"?>
<!-- Generator: Adobe Illustrator 16.0.0, SVG Export Plug-In . SVG Version: 6.00 Build 0)  -->
<!DOCTYPE svg PUBLIC "-//W3C//DTD SVG 1.1//EN" "http://www.w3.org/Graphics/SVG/1.1/DTD/svg11.dtd">
<svg version="1.1" id="Capa_1" xmlns="http://www.w3.org/2000/svg" xmlns:xlink="http://www.w3.org/1999/xlink" x="0px" y="0px"
	 width="783.18px" height="783.18px" viewBox="0 0 783.18 783.18" style="enable-background:new 0 0 783.18 783.18;"
	 xml:space="preserve">
<g>
	<g>
		<path d="M331.086,673.938h-8.811v47.139h47.139v-8.811C369.414,691.096,352.256,673.938,331.086,673.938z"/>
		<path d="M413.772,721.076h47.139v-47.139h-8.811c-21.169,0-38.328,17.158-38.328,38.328V721.076L413.772,721.076z"/>
		<path d="M214.764,246.524c-14.219,34.15-20.851,73.782-18.831,113.861c2.375,47.116,16.29,90.628,39.167,122.513
			c34.101,47.529,49.825,84.996,57,108.055c3.099,9.947,4.908,18.129,5.973,24.369c-9.347,3.49-17.34,9.535-23.363,17.826
			c-8.238,11.336-12.59,26.525-12.59,43.908v40.891c0,35.969,29.264,65.232,65.231,65.232h128.472
			c35.967,0,65.238-29.264,65.238-65.232v-40.891c0-17.389-4.358-32.572-12.59-43.908c-6.024-8.291-14.01-14.328-23.349-17.826
			c3.786-21.943,16.991-68.352,62.965-132.424c22.885-31.891,36.793-75.402,39.168-122.513c2.02-40.08-4.612-79.711-18.831-113.861
			c54.14-20.966,85.22-61.604,102.197-93.799c24.384-46.256,29.3-91.744,26.1-116.634C692.529,3.519,674.408,0,666.813,0
			c-1.151,0-2.317,0.08-3.468,0.239c-16.898,2.302-49.369,13.184-82.716,27.714c-22.19,9.672-62.154,28.619-80.398,46.871
			c-15.862,15.863-29.372,42.578-39.334,66.759c-0.319-0.108-0.638-0.217-0.956-0.326L490.805,9.795l-20.38-2.643
			c-2.252-0.29-55.204-7.117-78.813-7.153h-0.261c-23.631,0.043-76.511,6.863-78.748,7.153l-20.38,2.643l30.871,131.512
			c-0.269,0.094-0.536,0.174-0.797,0.268c-9.955-24.181-23.472-50.896-39.334-66.759c-18.252-18.245-58.209-37.199-80.398-46.871
			C169.21,13.423,136.739,2.541,119.842,0.239C118.698,0.08,117.525,0,116.374,0c-7.602,0-25.723,3.519-29.915,36.098
			c-3.2,24.891,1.716,70.378,26.1,116.634C129.536,184.928,160.617,225.551,214.764,246.524z M341.33,56.565l35.91,72.471h28.865
			l35.49-72.073l-17.76,75.656l-8.521,36.308l-12.213,52.026h-23.176l-12.206-52.011l-8.521-36.308L341.33,56.565z M123.52,38.755
			c34.918,8.58,112.898,42.013,133.198,62.313c11.664,11.664,25.412,37.647,37.713,71.276l7.044,19.258l18.462-8.927
			c3.794-1.832,7.696-3.497,11.7-5.003l18.874,80.399h81.999l18.889-80.457c4.062,1.52,8.015,3.207,11.858,5.061l18.462,8.927
			l7.045-19.258c12.3-33.629,26.041-59.613,37.712-71.276c20.294-20.3,98.267-53.734,133.185-62.313
			c2.136,13.169,0.854,44.207-14.117,80.167c-9.709,23.32-22.937,43.374-39.306,59.606c-19.128,18.968-42.129,32.058-68.358,38.914
			l-22.929,5.995l11.315,20.822c0.725,1.339,1.434,2.693,2.129,4.062c-17.05-10.237-37.626-17.933-60.981-17.933v37.119
			c40.702,0,72.195,36.728,81.173,48.398c0.152,1.202,0.297,2.411,0.435,3.62c-19.866-16.586-47.841-32.681-81.601-32.681v37.119
			c41.376,0,73.231,37.952,81.601,48.963c-3.808,34.1-14.849,65.715-31.088,88.348c-6.089,8.492-11.656,16.717-16.753,24.674
			c-1.723-2.064-3.591-4.17-5.618-6.277c-19.83-20.619-44.771-31.521-72.131-31.521v37.117c32.84,0,50.939,24.898,57.26,35.736
			c-1.773,3.367-3.468,6.676-5.067,9.912c-0.456-0.5-0.912-1-1.391-1.492c-12.749-13.119-30.204-19.779-51.866-19.779v37.119
			c11.309,0,19.519,2.736,25.094,8.361c7.175,7.248,8.724,17.963,9.057,22.371c-10.664,33.174-10.034,52.322-9.969,53.771
			l0.817,17.693h17.717c7.971,0,11.33,3.215,13.364,6.023c3.548,4.887,5.51,12.736,5.51,22.098v40.891
			c0,15.508-12.612,28.119-28.12,28.119H327.357c-15.5,0-28.119-12.611-28.119-28.119V677.08c0-9.361,1.954-17.211,5.502-22.098
			c2.034-2.801,5.394-6.023,13.372-6.023h17.716l0.818-17.693c0.087-1.854,0.586-18.939-8.21-48.369
			c-0.638-2.129-1.311-4.271-2.006-6.422c0.492-5.561,2.513-14.936,8.515-21.098c5.263-5.4,13.097-8.029,23.956-8.029v-37.119
			c-26.809,0-42.672,10.867-51.258,19.99c-0.08,0.08-0.145,0.166-0.225,0.246c-1.933-3.889-3.953-7.797-6.06-11.729
			c7.349-11.686,25.166-33.471,55.885-33.471v-37.119c-27.36,0-52.301,10.904-72.131,31.523c-1.478,1.535-2.867,3.07-4.185,4.59
			c-4.924-7.602-10.15-15.27-15.689-22.979c-16.688-23.256-27.881-55.994-31.385-91.165c10.867-13.531,41.043-46.14,79.393-46.14
			v-37.119c-32.225,0-59.179,14.668-78.842,30.422c0.115-0.985,0.246-1.969,0.376-2.954c3.794-4.988,10.614-13.22,19.866-21.401
			c19.07-16.862,38.784-25.412,58.6-25.412v-37.119c-21.995,0-41.354,6.82-57.564,16.159c0.398-0.767,0.797-1.527,1.209-2.28
			l11.316-20.822l-22.929-5.995c-26.237-6.856-49.238-19.953-68.366-38.921c-16.37-16.232-29.597-36.286-39.305-59.613
			C122.665,82.947,121.384,51.917,123.52,38.755z"/>
		<path d="M266.253,385.66c-1.448,12.033,2.99,24.225,12.17,33.463c8.16,8.203,19.425,13.539,31.719,15.016
			c2.28,0.275,4.597,0.412,6.878,0.412l0,0c24.789,0,44.655-15.609,47.239-37.111c1.448-12.033-2.989-24.232-12.17-33.462
			c-8.159-8.21-19.425-13.539-31.718-15.016c-2.288-0.275-4.598-0.413-6.885-0.413C288.704,348.549,268.838,364.158,266.253,385.66z
			 M313.493,385.667c0.811,0,1.637,0.051,2.454,0.152c3.982,0.478,7.559,2.056,9.825,4.33c1.216,1.224,1.701,2.338,1.636,2.867
			c-0.159,1.324-3.881,4.424-10.382,4.424l0,0c-0.811,0-1.637-0.051-2.454-0.152c-7.972-0.955-11.642-5.719-11.461-7.196
			C303.264,388.766,306.992,385.667,313.493,385.667z"/>
		<path d="M466.355,434.551c2.281,0,4.598-0.137,6.886-0.412c12.293-1.477,23.559-6.812,31.718-15.016
			c9.18-9.23,13.61-21.43,12.17-33.463c-2.584-21.502-22.451-37.111-47.24-37.111c-2.28,0-4.597,0.137-6.885,0.413
			c-12.293,1.477-23.559,6.812-31.718,15.016c-9.181,9.23-13.611,21.43-12.17,33.462C421.7,418.941,441.566,434.551,466.355,434.551
			z M467.435,385.812c0.818-0.101,1.644-0.152,2.454-0.152c6.502,0,10.23,3.099,10.39,4.424c0.174,1.477-3.489,6.24-11.461,7.195
			c-0.818,0.102-1.644,0.152-2.454,0.152c-6.502,0-10.23-3.098-10.39-4.424C455.793,391.539,459.456,386.768,467.435,385.812z"/>
		<rect x="359.249" y="611.783" width="64.508" height="37.119"/>
		<path d="M265.725,203.071l13.141-9.448c0,0-22.357-66.418-40.782-79.088c-18.433-12.67-56.058-30.719-87.161-37.633
			C150.922,76.895,160.906,173.481,265.725,203.071z"/>
		<path d="M632.091,76.895c-31.103,6.914-68.728,24.956-87.161,37.633c-18.433,12.67-40.781,79.088-40.781,79.088l13.14,9.448
			C622.107,173.481,632.091,76.895,632.091,76.895z"/>
	</g>
</g>
<g>
</g>
<g>
</g>
<g>
</g>
<g>
</g>
<g>
</g>
<g>
</g>
<g>
</g>
<g>
</g>
<g>
</g>
<g>
</g>
<g>
</g>
<g>
</g>
<g>
</g>
<g>
</g>
<g>
</g>
</svg>
